<svg width="32" height="32" viewBox="0 0 32 32" fill="none" xmlns="http://www.w3.org/2000/svg">
<path d="M6.54759 11.39L6.54781 11.3899L8.23111 10.5698L6.54759 11.39ZM6.54759 11.39C6.36025 11.4819 6.24082 11.6721 6.24082 11.8809V27.0497C6.24082 27.2564 6.35742 27.4459 6.54317 27.5387L8.22652 28.3804C8.30323 28.4188 8.38705 28.4379 8.47068 28.4379C8.55431 28.4379 8.63813 28.4188 8.71484 28.3804L8.71486 28.3804L10.1533 27.6608L11.5917 28.3804L11.5917 28.3804C11.6684 28.4188 11.7523 28.4379 11.8359 28.4379C11.9195 28.4379 12.0033 28.4188 12.0801 28.3804L12.0801 28.3804L13.5185 27.6608L14.9569 28.3804L14.9569 28.3804C15.0336 28.4188 15.1175 28.4379 15.2011 28.4379C15.2847 28.4379 15.3685 28.4188 15.4453 28.3804L15.4453 28.3804L16.8837 27.6608L18.3221 28.3804L18.3221 28.3804C18.3989 28.4188 18.4827 28.4379 18.5663 28.4379C18.6499 28.4379 18.7338 28.4188 18.8105 28.3804L20.4938 27.5387L20.494 27.5387C20.6785 27.4459 20.7962 27.2575 20.7962 27.0497V14.4122H22.4472C22.7488 14.4122 22.9937 14.1672 22.9937 13.8657C22.9937 13.5654 22.7546 13.3192 22.4517 13.3192H20.8006V11.8809C20.8006 11.6724 20.6814 11.4811 20.4935 11.3898L18.8103 10.5698M6.54759 11.39L18.8103 10.5698M18.8103 10.5698C18.8103 10.5698 18.8103 10.5698 18.8103 10.5698L18.8103 10.5698ZM15.4436 10.5698L15.3998 10.6597H18.7665C18.643 10.5994 18.4986 10.5994 18.375 10.6597L18.3312 10.5698L18.3312 10.5698L16.8874 11.2733L15.4436 10.5698L15.4436 10.5698ZM9.61049 26.711L8.47366 27.2795L7.33682 26.711V12.2218L8.47366 11.6684L9.61049 12.2218V26.711ZM12.9764 26.711L11.8396 27.2794L10.7035 26.7111V12.2218L11.8396 11.6684L12.9764 12.2218V26.711ZM16.3424 26.711L15.2056 27.2795L14.0687 26.711V12.2218L15.2056 11.6684L16.3424 12.2218V26.711ZM19.7076 12.2218V26.711L18.5708 27.2795L17.4339 26.711V12.2218L18.5708 11.6684L19.7076 12.2218Z" fill="#272727" stroke="#272727" stroke-width="0.2"/>
<path d="M25.2077 12.3033H22.446C22.1445 12.3033 21.8995 12.5483 21.8995 12.8498V14.9953C21.8995 15.2969 22.1445 15.5418 22.446 15.5418H25.2077C25.5092 15.5418 25.7542 15.2969 25.7542 14.9953V12.8498C25.7542 12.5474 25.5091 12.3033 25.2077 12.3033ZM24.6612 14.4481H22.9925V13.3956H24.6612V14.4481Z" fill="#272727" stroke="#272727" stroke-width="0.2"/>
<path d="M10.2939 4.60264L10.2938 4.60275L10.2926 4.60454C10.1325 4.82916 9.90244 5.15182 9.90244 5.73093C9.90244 6.31004 10.1325 6.63271 10.2926 6.85732L10.2938 6.85912L10.2939 6.85923C10.3597 6.95117 10.4043 7.01448 10.4347 7.08528C10.4638 7.15302 10.4814 7.23197 10.4814 7.35251C10.4814 7.47305 10.4638 7.55201 10.4347 7.61974C10.4043 7.69054 10.3597 7.75385 10.2939 7.8458L10.2938 7.84591L10.2926 7.8477C10.1325 8.07232 9.90244 8.39498 9.90244 8.97409C9.90244 9.27565 10.1474 9.5206 10.449 9.5206C10.7505 9.5206 10.9955 9.27565 10.9955 8.97409C10.9955 8.85355 11.013 8.7746 11.0421 8.70686C11.0725 8.63606 11.1172 8.57275 11.183 8.48081L11.183 8.4807L11.1843 8.4789C11.3444 8.25429 11.5744 7.93162 11.5744 7.35251C11.5744 6.7734 11.3444 6.45074 11.1843 6.22612L11.183 6.22433L11.183 6.22422C11.1172 6.13227 11.0725 6.06896 11.0421 5.99816C11.013 5.93043 10.9955 5.85147 10.9955 5.73093C10.9955 5.6108 11.013 5.53182 11.0422 5.46394C11.0726 5.39307 11.1173 5.32955 11.1829 5.23775C11.3442 5.01333 11.5744 4.68982 11.5744 4.10935C11.5744 3.8078 11.3295 3.56284 11.0279 3.56284C10.7264 3.56284 10.4814 3.8078 10.4814 4.10935C10.4814 4.22949 10.4638 4.30847 10.4347 4.37634C10.4043 4.44725 10.3596 4.51078 10.2939 4.60264Z" fill="#272727" stroke="#272727" stroke-width="0.2"/>
<path d="M13.0737 4.60264L13.0736 4.60275L13.0724 4.60455C12.9122 4.82916 12.6822 5.15182 12.6822 5.73093C12.6822 6.31004 12.9122 6.6327 13.0724 6.85732L13.0736 6.85912L13.0737 6.85923C13.1394 6.95117 13.1841 7.01448 13.2145 7.08528C13.2436 7.15302 13.2612 7.23197 13.2612 7.35251C13.2612 7.47305 13.2436 7.55201 13.2145 7.61974C13.1841 7.69055 13.1394 7.75385 13.0737 7.8458L13.0736 7.84591L13.0724 7.84771C12.9122 8.07232 12.6822 8.39498 12.6822 8.97409C12.6822 9.27565 12.9272 9.5206 13.2287 9.5206C13.5303 9.5206 13.7752 9.27565 13.7752 8.97409C13.7752 8.85355 13.7928 8.7746 13.8219 8.70686C13.8523 8.63606 13.897 8.57275 13.9627 8.48081L13.9628 8.4807L13.9641 8.4789C14.1242 8.25428 14.3542 7.93162 14.3542 7.35251C14.3542 6.7734 14.1242 6.45074 13.9641 6.22613L13.9628 6.22433L13.9627 6.22422C13.897 6.13227 13.8523 6.06896 13.8219 5.99816C13.7928 5.93043 13.7752 5.85147 13.7752 5.73093C13.7752 5.6108 13.7928 5.53182 13.8219 5.46394C13.8523 5.39307 13.897 5.32955 13.9627 5.23776C14.1239 5.01334 14.3542 4.68983 14.3542 4.10935C14.3542 3.8078 14.1093 3.56284 13.8077 3.56284C13.5062 3.56284 13.2612 3.8078 13.2612 4.10935C13.2612 4.22949 13.2436 4.30847 13.2145 4.37634C13.1841 4.44725 13.1394 4.51078 13.0737 4.60264Z" fill="#272727" stroke="#272727" stroke-width="0.2"/>
<path d="M15.8579 4.60264L15.8578 4.60275L15.8565 4.60454C15.6964 4.82916 15.4664 5.15182 15.4664 5.73093C15.4664 6.31004 15.6964 6.63271 15.8565 6.85732L15.8578 6.85912L15.8579 6.85923C15.9236 6.95117 15.9683 7.01448 15.9987 7.08528C16.0278 7.15302 16.0454 7.23197 16.0454 7.35251C16.0454 7.47305 16.0278 7.55201 15.9987 7.61974C15.9683 7.69054 15.9236 7.75385 15.8579 7.8458L15.8578 7.84591L15.8565 7.8477C15.6964 8.07232 15.4664 8.39498 15.4664 8.97409C15.4664 9.27565 15.7114 9.5206 16.0129 9.5206C16.3145 9.5206 16.5594 9.27565 16.5594 8.97409C16.5594 8.85355 16.577 8.7746 16.6061 8.70686C16.6365 8.63606 16.6812 8.57275 16.7469 8.48081L16.747 8.4807L16.7483 8.4789C16.9084 8.25429 17.1384 7.93162 17.1384 7.35251C17.1384 6.7734 16.9084 6.45074 16.7483 6.22612L16.747 6.22433L16.7469 6.22422C16.6812 6.13227 16.6365 6.06896 16.6061 5.99816C16.577 5.93043 16.5594 5.85147 16.5594 5.73093C16.5594 5.6108 16.577 5.53182 16.6061 5.46394C16.6365 5.39307 16.6812 5.32955 16.7468 5.23776C16.9081 5.01334 17.1384 4.68983 17.1384 4.10935C17.1384 3.8078 16.8934 3.56284 16.5919 3.56284C16.2903 3.56284 16.0454 3.8078 16.0454 4.10935C16.0454 4.22949 16.0278 4.30847 15.9987 4.37634C15.9683 4.44725 15.9236 4.51078 15.8579 4.60264Z" fill="#272727" stroke="#272727" stroke-width="0.2"/>
</svg>
