<svg width="32" height="32" viewBox="0 0 32 32" fill="none" xmlns="http://www.w3.org/2000/svg">
<path d="M8.28001 6.32896H10.0363C10.3371 6.32896 10.5828 6.08326 10.5828 5.78245C10.5828 5.48164 10.3371 5.23594 10.0363 5.23594H8.28001C7.9792 5.23594 7.7335 5.48164 7.7335 5.78245C7.7335 6.08326 7.9792 6.32896 8.28001 6.32896Z" fill="#272727" stroke="#272727" stroke-width="0.2"/>
<path d="M22.0495 6.32896H23.8058C24.1152 6.32896 24.3523 6.08217 24.3523 5.78245C24.3523 5.48164 24.1066 5.23594 23.8058 5.23594H22.0495C21.7487 5.23594 21.503 5.48164 21.503 5.78245C21.503 6.08326 21.7487 6.32896 22.0495 6.32896Z" fill="#272727" stroke="#272727" stroke-width="0.2"/>
<path d="M11.1496 6.32918L11.1496 6.32921L11.1518 6.33129C11.2953 6.46634 11.4905 6.55196 11.6966 6.55196C11.9028 6.55196 12.098 6.46634 12.2414 6.33129L12.2416 6.33142L12.2457 6.32701C12.3808 6.18352 12.4664 5.98835 12.4664 5.78219C12.4664 5.72919 12.4578 5.67757 12.4507 5.63499L12.4502 5.6318C12.4413 5.57854 12.4242 5.52758 12.4082 5.48722C12.3898 5.43337 12.3633 5.38909 12.3422 5.35397L12.3405 5.35121C12.3136 5.30638 12.2786 5.26279 12.2436 5.22776C12.0653 5.04944 11.8017 4.96309 11.5517 5.01411C11.4992 5.02308 11.449 5.03992 11.4091 5.05574C11.3552 5.0741 11.311 5.10068 11.2758 5.12176C11.2749 5.12232 11.274 5.12287 11.2731 5.12342C11.2283 5.15032 11.1847 5.18529 11.1496 5.22032C11.1146 5.25534 11.0796 5.29894 11.0527 5.34377C11.0522 5.34468 11.0516 5.3456 11.0511 5.34653C11.0296 5.38227 11.0025 5.42751 10.9841 5.48266C10.9817 5.48969 10.9792 5.49708 10.9765 5.50481C10.9647 5.53895 10.9505 5.57967 10.9431 5.62436C10.9429 5.62541 10.9427 5.62648 10.9426 5.62755C10.9355 5.67013 10.9269 5.72174 10.9269 5.77475C10.9269 5.82776 10.9355 5.87937 10.9426 5.92195L10.9431 5.92514C10.952 5.9784 10.969 6.02936 10.9851 6.06972C11.0034 6.12357 11.03 6.16785 11.0511 6.20297C11.0516 6.2039 11.0522 6.20482 11.0527 6.20573C11.0796 6.25056 11.1146 6.29416 11.1496 6.32918Z" fill="#272727" stroke="#272727" stroke-width="0.2"/>
<path d="M12.8318 6.32918L12.8317 6.32921L12.8339 6.33129C12.9774 6.46634 13.1726 6.55196 13.3788 6.55196C13.5849 6.55196 13.7801 6.46634 13.9236 6.33129L13.9237 6.33142L13.9279 6.32701C14.0629 6.18352 14.1485 5.98835 14.1485 5.78219C14.1485 5.72919 14.1399 5.67757 14.1328 5.63499L14.1323 5.6318C14.1234 5.57854 14.1063 5.52758 14.0903 5.48722C14.072 5.43337 14.0454 5.38909 14.0243 5.35397L14.0226 5.35121C13.9957 5.30638 13.9608 5.26279 13.9257 5.22776C13.7474 5.04944 13.4839 4.96309 13.2339 5.01411C13.1813 5.02308 13.1311 5.03992 13.0912 5.05574C13.0374 5.0741 12.9931 5.10068 12.958 5.12176C12.957 5.12232 12.9561 5.12287 12.9552 5.12342C12.9104 5.15031 12.8668 5.18529 12.8318 5.22032C12.7967 5.25535 12.7618 5.29894 12.7349 5.34377C12.7343 5.34468 12.7338 5.3456 12.7332 5.34653C12.7117 5.38227 12.6846 5.42751 12.6662 5.48266C12.6639 5.48969 12.6613 5.49708 12.6586 5.50481C12.6468 5.53895 12.6327 5.57967 12.6252 5.62436C12.6251 5.62541 12.6249 5.62648 12.6247 5.62755C12.6176 5.67013 12.609 5.72174 12.609 5.77475C12.609 5.82776 12.6176 5.87937 12.6247 5.92195L12.6252 5.92514C12.6341 5.9784 12.6512 6.02936 12.6672 6.06972C12.6855 6.12357 12.7121 6.16785 12.7332 6.20297L12.7349 6.20573C12.7618 6.25056 12.7967 6.29415 12.8318 6.32918Z" fill="#272727" stroke="#272727" stroke-width="0.2"/>
<path d="M14.5222 6.32918L14.5222 6.32921L14.5244 6.33129C14.6679 6.46634 14.863 6.55196 15.0692 6.55196C15.2673 6.55196 15.4701 6.46675 15.614 6.33129L15.6141 6.33142L15.6183 6.32701C15.7533 6.18352 15.839 5.98835 15.839 5.78219C15.839 5.72919 15.8303 5.67757 15.8232 5.63499L15.8227 5.6318C15.8138 5.57854 15.7968 5.52758 15.7808 5.48722C15.7624 5.43337 15.7358 5.38909 15.7147 5.35397L15.7131 5.35121C15.6862 5.30638 15.6512 5.26279 15.6162 5.22776C15.4379 5.04944 15.1743 4.96309 14.9243 5.01411C14.8717 5.02308 14.8215 5.03992 14.7816 5.05574C14.7278 5.0741 14.6835 5.10068 14.6484 5.12176C14.6475 5.12232 14.6466 5.12287 14.6456 5.12342C14.6008 5.15032 14.5572 5.18529 14.5222 5.22032C14.4872 5.25534 14.4522 5.29894 14.4253 5.34377C14.4247 5.34468 14.4242 5.3456 14.4236 5.34653C14.4022 5.38227 14.375 5.42751 14.3566 5.48266C14.3543 5.48969 14.3517 5.49708 14.3491 5.50481C14.3372 5.53895 14.3231 5.57967 14.3157 5.62436C14.3155 5.62541 14.3153 5.62648 14.3151 5.62755C14.308 5.67013 14.2994 5.72174 14.2994 5.77475C14.2994 5.82776 14.308 5.87937 14.3151 5.92195L14.3157 5.92514C14.3245 5.9784 14.3416 6.02936 14.3576 6.06972C14.376 6.12357 14.4026 6.16785 14.4236 6.20297L14.4253 6.20573C14.4522 6.25056 14.4872 6.29415 14.5222 6.32918Z" fill="#272727" stroke="#272727" stroke-width="0.2"/>
<path d="M6.05052 28.1782H25.9129C26.2137 28.1782 26.4594 27.9325 26.4594 27.6317V3.60935C26.4594 3.30854 26.2137 3.06284 25.9129 3.06284H6.05052C5.74971 3.06284 5.504 3.30854 5.504 3.60935V27.6317C5.504 27.9325 5.74971 28.1782 6.05052 28.1782ZM25.3663 4.15587V27.0852H6.59703V4.15587H25.3663Z" fill="#272727" stroke="#272727" stroke-width="0.2"/>
<path d="M6.27073 8.2711H25.9098C26.2128 8.2711 26.4489 8.02319 26.4489 7.72459C26.4489 7.42378 26.2032 7.17808 25.9024 7.17808H6.27073C5.96992 7.17808 5.72422 7.42378 5.72422 7.72459C5.72422 8.0254 5.96992 8.2711 6.27073 8.2711Z" fill="#272727" stroke="#272727" stroke-width="0.2"/>
<path d="M11.9943 17.0142L11.9943 17.0142C12.1903 15.8744 12.8652 14.8803 13.8593 14.2851C14.1228 14.1304 14.2053 13.7934 14.0505 13.5376C13.8955 13.2741 13.5582 13.1918 13.3024 13.3471L13.3543 13.4326L13.3033 13.3466C12.0351 14.0984 11.1698 15.3739 10.9192 16.8307C10.8646 17.1238 11.0645 17.4025 11.3584 17.4592C11.3948 17.4695 11.4346 17.4694 11.4532 17.4693C11.4544 17.4693 11.4556 17.4693 11.4567 17.4693C11.713 17.4693 11.9487 17.2787 11.9943 17.0142Z" fill="#272727" stroke="#272727" stroke-width="0.2"/>
<path d="M15.1896 12.6782L15.1896 12.6781L15.1846 12.6789C14.8868 12.724 14.6756 12.996 14.7211 13.2981C14.7581 13.5643 14.9948 13.7633 15.2591 13.7633C15.2834 13.7633 15.3065 13.7632 15.3441 13.7544C15.3718 13.751 15.4011 13.7475 15.4308 13.744L15.431 13.744C15.4619 13.7404 15.4933 13.7367 15.5229 13.733C15.823 13.7048 16.0408 13.4404 16.0136 13.1408C15.9862 12.8398 15.7214 12.6211 15.4212 12.6484L15.4212 12.6484L15.4203 12.6485C15.381 12.6524 15.3402 12.6582 15.3019 12.6637L15.3008 12.6639C15.2613 12.6695 15.2243 12.6748 15.1896 12.6782Z" fill="#272727" stroke="#272727" stroke-width="0.2"/>
<path d="M21.9521 14.7109L21.9516 14.711C20.5267 14.9729 19.4957 16.2278 19.4957 17.6745C19.4957 19.1207 20.5258 20.3669 21.9484 20.6373C21.9888 20.647 22.0207 20.647 22.049 20.647L22.0515 20.647C22.2705 20.647 22.4706 20.5186 22.5606 20.3027L22.5606 20.3027L22.5612 20.3011C22.8934 19.4631 23.0594 18.5799 23.0594 17.6745C23.0594 16.769 22.8934 15.8858 22.5612 15.0478L22.5612 15.0478L22.5609 15.047C22.461 14.8019 22.2064 14.6655 21.9521 14.7109ZM20.5813 17.6745C20.5813 16.9128 21.0379 16.2338 21.706 15.927C21.8746 16.4887 21.959 17.0814 21.959 17.6745C21.959 18.2677 21.8745 18.8544 21.7056 19.4222C21.0318 19.1157 20.5813 18.4368 20.5813 17.6745Z" fill="#272727" stroke="#272727" stroke-width="0.2"/>
<path d="M17.9385 23.5014C20.3497 22.6531 21.9645 20.4652 22.0613 17.9126C22.091 17.1387 21.972 16.3722 21.719 15.6354M17.9385 23.5014L17.9055 23.407M17.9385 23.5014C16.3831 24.0447 14.7087 23.9554 13.2203 23.241L20.5655 13.641C21.0715 14.2289 21.4585 14.8987 21.719 15.6354M17.9385 23.5014L17.9053 23.4071C17.9054 23.4071 17.9054 23.4071 17.9055 23.407M17.9055 23.407C20.2779 22.5722 21.8662 20.4202 21.9614 17.9088L21.9614 17.9088C21.9906 17.1479 21.8736 16.3938 21.6245 15.6683M17.9055 23.407C16.3751 23.9416 14.7281 23.8537 13.2638 23.1509C11.8065 22.4479 10.7013 21.2181 10.1668 19.688L10.1668 19.6879C9.06136 16.5327 10.7306 13.0621 13.8862 11.9493C14.5529 11.7148 15.2412 11.5977 15.9143 11.5977C17.6342 11.5977 19.3032 12.3368 20.4898 13.7063C20.9875 14.2846 21.3682 14.9433 21.6245 15.6683M21.6245 15.6683C21.6246 15.6685 21.6246 15.6686 21.6247 15.6687L21.719 15.6354M21.6245 15.6683C21.6245 15.6682 21.6244 15.668 21.6244 15.6679L21.719 15.6354M12.7975 24.1348L12.7978 24.135C13.7783 24.6026 14.8348 24.8442 15.892 24.8442C16.6922 24.8442 17.4919 24.7083 18.2683 24.4445L18.269 24.4443C19.6579 23.9612 20.8355 23.0779 21.6957 21.8932L21.696 21.8928C22.5258 20.7386 23.0013 19.3728 23.0542 17.9538C23.0919 17.048 22.9561 16.1573 22.6542 15.3046C22.3524 14.4444 21.8995 13.6669 21.3108 12.9876C20.3824 11.9159 19.1598 11.1461 17.7864 10.7688L17.7863 10.7687C16.3824 10.3838 14.9031 10.4367 13.5222 10.9196L13.5222 10.9196C9.79355 12.2254 7.8315 16.3235 9.13712 20.0517L9.13716 20.0518C9.77108 21.8555 11.0695 23.3048 12.7975 24.1348Z" fill="#272727" stroke="#272727" stroke-width="0.2"/>
</svg>
