<svg width="32" height="32" viewBox="0 0 32 32" fill="none" xmlns="http://www.w3.org/2000/svg">
<path d="M8.36868 25.3469C8.36868 25.6477 8.61439 25.8934 8.9152 25.8934C9.21601 25.8934 9.46171 25.6477 9.46171 25.3469V12.4353C9.46171 12.1345 9.21601 11.8888 8.9152 11.8888H3.051C2.75019 11.8888 2.50449 12.1345 2.50449 12.4353C2.50449 12.7361 2.75019 12.9818 3.051 12.9818H8.36868V25.3469Z" fill="#272727" stroke="#272727" stroke-width="0.2"/>
<path d="M8.50708 22.4216L8.50706 22.4216L8.50559 22.4233C8.3065 22.6495 8.32345 22.9945 8.54285 23.1956C8.65125 23.295 8.77979 23.341 8.91554 23.341C9.05837 23.341 9.2076 23.2873 9.31161 23.1571L13.3575 18.7617L13.3576 18.7616C14.0443 18.0139 14.4183 17.052 14.4183 16.0373V9.94237C14.4183 7.72156 12.6173 5.92051 10.3965 5.92051C8.17566 5.92051 6.37461 7.72156 6.37461 9.94237V12.4279C6.37461 12.7288 6.62031 12.9745 6.92112 12.9745C7.22193 12.9745 7.46763 12.7288 7.46763 12.4279V9.94237C7.46763 8.33062 8.78472 7.01353 10.3965 7.01353C12.0082 7.01353 13.3253 8.33062 13.3253 9.94237V16.0373C13.3253 16.779 13.0517 17.484 12.5554 18.0235L8.50708 22.4216Z" fill="#272727" stroke="#272727" stroke-width="0.2"/>
<path d="M15.3194 15.4121C15.3194 16.911 16.5326 18.1242 18.0315 18.1242C19.5228 18.1242 20.7436 16.9112 20.7436 15.4121C20.7436 15.1113 20.4979 14.8656 20.1971 14.8656C19.8963 14.8656 19.6506 15.1113 19.6506 15.4121C19.6506 16.302 18.9214 17.0312 18.0315 17.0312C17.1416 17.0312 16.4125 16.302 16.4125 15.4121C16.4125 15.1113 16.1668 14.8656 15.8659 14.8656C15.5651 14.8656 15.3194 15.1113 15.3194 15.4121Z" fill="#272727" stroke="#272727" stroke-width="0.2"/>
<path d="M25.0747 15.4126V15.4121C25.0747 15.1113 24.829 14.8656 24.5282 14.8656C24.2274 14.8656 23.9817 15.1113 23.9817 15.4121C23.9817 16.302 23.2525 17.0312 22.3626 17.0312C21.4727 17.0312 20.7435 16.302 20.7435 15.4121C20.7435 15.1113 20.4978 14.8656 20.197 14.8656C19.8962 14.8656 19.6505 15.1113 19.6505 15.4121C19.6505 16.911 20.8636 18.1242 22.3626 18.1242C23.8544 18.1242 25.067 16.9109 25.0747 15.4126Z" fill="#272727" stroke="#272727" stroke-width="0.2"/>
<path d="M24.0709 15.4121C24.0709 16.911 25.284 18.1242 26.783 18.1242C28.2819 18.1242 29.4951 16.911 29.4951 15.4121C29.4951 15.1113 29.2494 14.8656 28.9486 14.8656C28.6478 14.8656 28.4021 15.1113 28.4021 15.4121C28.4021 16.302 27.6729 17.0312 26.783 17.0312C25.8931 17.0312 25.1639 16.302 25.1639 15.4121C25.1639 15.1113 24.9182 14.8656 24.6174 14.8656C24.3166 14.8656 24.0709 15.1113 24.0709 15.4121Z" fill="#272727" stroke="#272727" stroke-width="0.2"/>
<path d="M15.3194 23.3601C15.3194 24.859 16.5326 26.0722 18.0315 26.0722C19.523 26.0722 20.7436 24.8516 20.7436 23.3601C20.7436 23.0593 20.4979 22.8136 20.1971 22.8136C19.8963 22.8136 19.6506 23.0593 19.6506 23.3601C19.6506 24.25 18.9214 24.9792 18.0315 24.9792C17.1416 24.9792 16.4125 24.25 16.4125 23.3601C16.4125 23.0593 16.1668 22.8136 15.8659 22.8136C15.5651 22.8136 15.3194 23.0593 15.3194 23.3601Z" fill="#272727" stroke="#272727" stroke-width="0.2"/>
<path d="M25.0747 23.3606V23.3601C25.0747 23.0593 24.829 22.8136 24.5282 22.8136C24.2274 22.8136 23.9817 23.0593 23.9817 23.3601C23.9817 24.25 23.2525 24.9792 22.3626 24.9792C21.4727 24.9792 20.7435 24.25 20.7435 23.3601C20.7435 23.0593 20.4978 22.8136 20.197 22.8136C19.8962 22.8136 19.6505 23.0593 19.6505 23.3601C19.6505 24.859 20.8636 26.0722 22.3626 26.0722C23.8546 26.0722 25.067 24.8512 25.0747 23.3606Z" fill="#272727" stroke="#272727" stroke-width="0.2"/>
<path d="M24.0709 23.3601C24.0709 24.859 25.284 26.0722 26.783 26.0722C28.2821 26.0722 29.4951 24.8514 29.4951 23.3601C29.4951 23.0593 29.2494 22.8136 28.9486 22.8136C28.6478 22.8136 28.4021 23.0593 28.4021 23.3601C28.4021 24.25 27.6729 24.9792 26.783 24.9792C25.8931 24.9792 25.1639 24.25 25.1639 23.3601C25.1639 23.0593 24.9182 22.8136 24.6174 22.8136C24.3166 22.8136 24.0709 23.0593 24.0709 23.3601Z" fill="#272727" stroke="#272727" stroke-width="0.2"/>
<path d="M12.3279 21.1867C12.2105 21.4687 12.347 21.7878 12.6294 21.8975C12.9532 22.0285 13.2931 22.0981 13.6486 22.0981C15.1477 22.0981 16.3607 20.8773 16.3607 19.386C16.3607 19.0852 16.115 18.8395 15.8141 18.8395C15.5133 18.8395 15.2676 19.0852 15.2676 19.386C15.2676 20.2759 14.5384 21.005 13.6486 21.005C13.4385 21.005 13.2282 20.963 13.0393 20.8861C12.7573 20.7682 12.438 20.9044 12.3279 21.1867Z" fill="#272727" stroke="#272727" stroke-width="0.2"/>
<path d="M15.2677 19.386C15.2677 20.8849 16.4808 22.0981 17.9798 22.0981C19.4789 22.0981 20.6919 20.8773 20.6919 19.386C20.6919 19.0852 20.4462 18.8395 20.1454 18.8395C19.8445 18.8395 19.5988 19.0852 19.5988 19.386C19.5988 20.2759 18.8697 21.005 17.9798 21.005C17.0899 21.005 16.3607 20.2759 16.3607 19.386C16.3607 19.0852 16.115 18.8395 15.8142 18.8395C15.5134 18.8395 15.2677 19.0852 15.2677 19.386Z" fill="#272727" stroke="#272727" stroke-width="0.2"/>
<path d="M19.6954 19.386C19.6954 20.8849 20.9086 22.0981 22.4075 22.0981C23.899 22.0981 25.1196 20.8775 25.1196 19.386C25.1196 19.0852 24.8739 18.8395 24.5731 18.8395C24.2723 18.8395 24.0266 19.0852 24.0266 19.386C24.0266 20.2759 23.2974 21.005 22.4075 21.005C21.5176 21.005 20.7884 20.2759 20.7884 19.386C20.7884 19.0852 20.5427 18.8395 20.2419 18.8395C19.9411 18.8395 19.6954 19.0852 19.6954 19.386Z" fill="#272727" stroke="#272727" stroke-width="0.2"/>
<path d="M24.0714 19.386C24.0714 20.8849 25.2845 22.0981 26.7835 22.0981C28.2826 22.0981 29.4956 20.8773 29.4956 19.386C29.4956 19.0852 29.2499 18.8395 28.9491 18.8395C28.6483 18.8395 28.4026 19.0852 28.4026 19.386C28.4026 20.2759 27.6734 21.005 26.7835 21.005C25.8936 21.005 25.1644 20.2759 25.1644 19.386C25.1644 19.0852 24.9187 18.8395 24.6179 18.8395C24.3171 18.8395 24.0714 19.0852 24.0714 19.386Z" fill="#272727" stroke="#272727" stroke-width="0.2"/>
</svg>
