<svg width="32" height="32" viewBox="0 0 32 32" fill="none" xmlns="http://www.w3.org/2000/svg">
<path d="M24.93 14.8077C24.93 15.0817 25.1526 15.3042 25.4265 15.3042C25.7004 15.3042 25.923 15.0817 25.923 14.8077V11.5713C25.923 11.2973 25.7004 11.0748 25.4265 11.0748C25.1526 11.0748 24.93 11.2973 24.93 11.5713V14.8077Z" fill="#272727" stroke="#272727" stroke-width="0.1"/>
<path d="M25.966 18.7024L25.9661 18.7025C26.3051 18.9089 26.6944 19.0186 27.092 19.0186C27.366 19.0186 27.5885 18.7961 27.5885 18.5221V11.3452C27.5885 9.68437 26.3538 8.29044 24.7164 8.10368C24.0826 8.03053 23.4325 7.99321 22.7802 7.99321C22.5059 7.99321 22.2859 8.21611 22.2859 8.48973C22.2859 8.76399 22.5111 8.98624 22.7847 8.98624C23.3945 8.98624 24.0058 9.02111 24.6029 9.09009L24.603 9.0901C25.7383 9.21964 26.5955 10.1884 26.5955 11.3452V17.9149C26.5576 17.8971 26.5204 17.8771 26.4841 17.8551C26.2499 17.7119 25.9445 17.7856 25.8014 18.0198C25.6582 18.2539 25.7319 18.5593 25.966 18.7024Z" fill="#272727" stroke="#272727" stroke-width="0.1"/>
<path d="M19.1922 29.802L19.1922 29.802C19.7059 29.1786 20.1232 28.6864 20.3368 28.436L18.9934 21.1813L18.9934 21.1813C18.7832 20.0453 18.7637 18.6157 18.9438 17.2805C19.1236 15.9468 19.5036 14.6988 20.0985 13.9319C20.2665 13.715 20.5785 13.6762 20.7952 13.8441C21.0121 14.0122 21.0509 14.3241 20.883 14.5408L20.883 14.5409C20.4338 15.1198 20.0988 16.1633 19.9297 17.353C19.761 18.5407 19.7589 19.8654 19.9691 21.0008L21.3555 28.4888L21.3555 28.4889C21.3828 28.637 21.3414 28.7893 21.243 28.9034M19.1922 29.802L21.2052 28.8708M19.1922 29.802C19.0698 29.9508 19.0441 30.156 19.1261 30.3299C19.208 30.5037 19.3834 30.6145 19.5754 30.6145H22.7806C23.0544 30.6145 23.2772 30.392 23.2756 30.1179M19.1922 29.802L23.2756 30.1179M21.243 28.9034L21.2052 28.8708M21.243 28.9034C21.2433 28.9031 21.2435 28.9029 21.2436 28.9028L21.2052 28.8708M21.243 28.9034C21.2422 28.9044 21.2404 28.9065 21.2377 28.9096C21.1989 28.9548 20.9719 29.2187 20.6337 29.6215M21.2052 28.8708C21.2048 28.8712 21.2021 28.8743 21.1972 28.8801C21.1519 28.9327 20.9178 29.2051 20.5684 29.6215H20.6337M20.6337 29.6215C20.6199 29.6379 20.6059 29.6546 20.5917 29.6715H20.5265H22.2826V29.6215M20.6337 29.6215H22.2826M22.2826 29.6215V18.2267C22.2826 17.9527 22.5052 17.7302 22.7791 17.7302C23.053 17.7302 23.2756 17.9527 23.2756 18.2267V30.1179M22.2826 29.6215H22.3326M22.3326 29.6215V18.2267C22.3326 17.9804 22.5328 17.7802 22.7791 17.7802C23.0254 17.7802 23.2256 17.9804 23.2256 18.2267V30.118M22.3326 29.6215L21.3064 28.4979L19.9199 21.0099C19.4972 18.7268 19.9289 15.689 20.8435 14.5102C20.9945 14.3152 20.9596 14.0347 20.7646 13.8836C20.5696 13.7325 20.2891 13.7675 20.138 13.9625C18.9644 15.4754 18.6243 18.9121 19.0425 21.1722L20.3903 28.4503C20.1819 28.6944 19.757 29.1952 19.2308 29.8337C19.1207 29.9677 19.0976 30.1523 19.1713 30.3085C19.245 30.4648 19.4027 30.5645 19.5754 30.5645H22.7806C23.0269 30.5645 23.2271 30.3643 23.2256 30.118M22.3326 29.6215L23.2756 30.1179M23.2256 30.118H23.2756V30.1179M23.2256 30.118L23.2756 30.1177C23.2756 30.1178 23.2756 30.1178 23.2756 30.1179" fill="#272727" stroke="#272727" stroke-width="0.1"/>
<path d="M25.9896 30.6145H22.7844C22.5105 30.6145 22.2879 30.392 22.2879 30.118V18.2267C22.2879 17.9527 22.5105 17.7302 22.7844 17.7302C23.0583 17.7302 23.2809 17.9527 23.2809 18.2267V29.6215H24.9299C24.5915 29.2186 24.3646 28.9547 24.3258 28.9096C24.3231 28.9065 24.3213 28.9044 24.3205 28.9034C24.3202 28.9031 24.32 28.9029 24.3199 28.9028L24.3584 28.8708L25.9896 30.6145ZM25.9896 30.6145C26.1814 30.6145 26.3569 30.5039 26.4374 30.3299M25.9896 30.6145L26.4374 30.3299M26.4374 30.3299C26.5193 30.1561 26.4937 29.9501 26.3713 29.802L26.4374 30.3299ZM24.208 28.4888L24.208 28.4889L26.3712 29.8019C25.8576 29.1785 25.4403 28.6863 25.2267 28.436L26.5701 21.1813C26.5701 21.1813 26.5701 21.1813 26.5701 21.1813C26.7807 20.0453 26.8001 18.6157 26.62 17.2805C26.4401 15.9468 26.0599 14.6988 25.465 13.9319C25.297 13.715 24.985 13.6762 24.7683 13.8441C24.5514 14.0122 24.5126 14.3241 24.6805 14.5408L24.6805 14.5409C25.1297 15.1198 25.4647 16.1631 25.6338 17.3527C25.8026 18.5404 25.8046 19.8651 25.5944 21.0008L24.208 28.4888Z" fill="#272727" stroke="#272727" stroke-width="0.1"/>
<path d="M24.9336 11.5069L24.9832 11.5133L24.9336 11.5068L24.9336 11.5069ZM24.9336 11.5069C24.9692 11.2345 25.2185 11.0442 25.4905 11.0798C25.7628 11.1153 25.954 11.3653 25.9176 11.6368C25.9176 11.6368 25.9176 11.6368 25.9176 11.6368L24.9336 11.5069ZM25.0095 14.7279L25.0094 14.7279L24.5824 14.1709L24.6319 14.1775L24.5824 14.171L24.5824 14.1709C24.546 14.4424 24.7372 14.6924 25.0095 14.7279Z" fill="#272727" stroke="#272727" stroke-width="0.1"/>
<path d="M7.63192 28.1798L7.39155 16.5236L7.39155 16.5236C7.38577 16.2494 7.15938 16.0297 6.88491 16.0371M7.63192 28.1798L6.88507 16.0371C6.88502 16.0371 6.88496 16.0371 6.88491 16.0371M7.63192 28.1798L7.63192 28.1798L7.63192 28.1798ZM6.88491 16.0371C6.61041 16.043 6.39277 16.2696 6.39855 16.5436C6.39855 16.5436 6.39855 16.5436 6.39855 16.5436M6.88491 16.0371L6.39855 16.5436M6.39855 16.5436L6.63237 27.8988C6.42459 28.0218 6.13729 28.2114 5.87529 28.4531C5.60306 28.7043 5.35401 29.0155 5.25365 29.3705H5.25365C5.15441 29.7202 5.20743 30.0712 5.40537 30.3836L6.39855 16.5436ZM6.15161 29.6729H6.20225C6.20402 29.6628 6.20626 29.6529 6.20936 29.642L6.20943 29.6418C6.21118 29.6355 6.2131 29.6293 6.21519 29.6229H6.16282C6.16229 29.6247 6.16178 29.6265 6.16128 29.6283C6.15682 29.6439 6.15384 29.6581 6.15161 29.6729ZM9.42528 29.6729V29.6229H9.37529L9.37528 29.6729L9.42528 29.6729ZM7.33189 28.5909L7.35391 28.6358C7.35395 28.6358 7.354 28.6357 7.35405 28.6357L7.33189 28.5909Z" fill="#272727" stroke="#272727" stroke-width="0.1"/>
<path d="M13.5858 29.6268C13.5902 29.6424 13.5932 29.6573 13.5954 29.6714L13.5858 29.6268ZM13.5858 29.6268C13.5853 29.625 13.5847 29.6232 13.5842 29.6214L13.5858 29.6268ZM12.3555 16.5221L12.3555 16.5221C12.3613 16.2481 12.5903 16.0298 12.862 16.0356L12.3555 16.5221ZM12.3555 16.5221L12.1151 28.1782M12.3555 16.5221L12.1151 28.1782M13.3485 16.5419L13.3485 16.542L13.1147 27.8973C13.3228 28.0203 13.6103 28.21 13.8723 28.4519C14.1446 28.7031 14.3934 29.0144 14.4934 29.3691C14.5926 29.7194 14.5396 30.0704 14.3416 30.3821C14.3416 30.3821 14.3416 30.3821 14.3416 30.3821L14.2994 30.3553L13.3485 16.5419ZM13.3485 16.5419C13.3535 16.2681 13.1359 16.0414 12.862 16.0356L13.3485 16.5419ZM12.1151 28.1782C12.1151 28.1783 12.1151 28.1783 12.1151 28.1783M12.1151 28.1782L12.1151 28.1783M12.1151 28.1783C12.111 28.3711 12.2194 28.549 12.3923 28.6342L12.1151 28.1783ZM9.37725 19.3726V19.3726L12.3923 28.6342C12.556 28.715 12.8175 28.8716 13.0516 29.0576C13.1686 29.1506 13.2776 29.2501 13.364 29.3503C13.4449 29.4441 13.5036 29.5359 13.5318 29.6214H10.3717L10.3703 19.3726C10.3703 19.3726 10.3703 19.3726 10.3703 19.3726C10.3703 19.0987 10.1477 18.8761 9.87376 18.8761C9.59982 18.8761 9.37725 19.0987 9.37725 19.3726Z" fill="#272727" stroke="#272727" stroke-width="0.1"/>
<path d="M12.1326 6.18879V6.18872V3.94425C12.1326 2.74455 11.1562 1.76812 9.9565 1.76812H9.79948C8.59977 1.76812 7.62334 2.74455 7.62334 3.94425V5.01142C7.62334 6.21112 8.59977 7.18756 9.79948 7.18756H11.1331C11.6839 7.18756 12.1319 6.7395 12.1326 6.18879ZM8.61636 3.94425C8.61636 3.29168 9.14691 2.76114 9.79948 2.76114H9.95576C10.6083 2.76114 11.1389 3.29168 11.1389 3.94425V6.18872C11.1389 6.18889 11.1387 6.1905 11.1368 6.19243C11.1348 6.19437 11.1332 6.19453 11.1331 6.19453H9.79948C9.14691 6.19453 8.61636 5.66399 8.61636 5.01142V3.94425Z" fill="#272727" stroke="#272727" stroke-width="0.1"/>
<path d="M12.355 16.0355V11.3249C12.355 11.051 12.5775 10.8284 12.8515 10.8284C13.1254 10.8284 13.348 11.051 13.348 11.3249L13.348 16.5318L13.348 16.532M12.355 16.0355L13.348 16.532M12.355 16.0355H7.39299L7.39078 11.3249C7.39078 11.3249 7.39078 11.3249 7.39078 11.3249C7.39076 11.0502 7.16814 10.8284 6.89427 10.8284C6.61953 10.8284 6.39775 11.051 6.39775 11.3249L6.39775 11.325L6.40073 16.532C6.40073 16.532 6.40073 16.532 6.40073 16.532M12.355 16.0355L6.40073 16.532M13.348 16.532C13.3487 16.806 13.1261 17.0285 12.8522 17.0285H6.89724C6.62337 17.0285 6.40075 16.8068 6.40073 16.532M13.348 16.532L6.40073 16.532" fill="#272727" stroke="#272727" stroke-width="0.1"/>
<path d="M4.84918 18.7697L4.84917 18.7698L4.85178 18.7699C4.85294 18.77 4.85525 18.7702 4.85864 18.7705C4.88218 18.7727 4.95793 18.7797 5.06719 18.7797C5.41107 18.7797 6.10479 18.7122 6.65571 18.2239L6.65574 18.2239C7.14698 17.7877 7.39217 17.145 7.39217 16.3215V11.3243C7.39217 11.0504 7.1696 10.8278 6.89566 10.8278C6.62172 10.8278 6.39915 11.0504 6.39915 11.3243V16.3215C6.39915 16.8588 6.26114 17.2434 6.00046 17.478C5.82164 17.6388 5.5998 17.7173 5.40594 17.7548V11.1383C5.40594 9.98452 6.26243 9.01565 7.39783 8.88319C8.21526 8.78816 9.04533 8.7399 9.86571 8.7399H9.86573H9.86574H9.86576H9.86578H9.86579H9.86581H9.86583H9.86585H9.86586H9.86588H9.8659H9.86592H9.86593H9.86595H9.86597H9.86599H9.866H9.86602H9.86604H9.86606H9.86607H9.86609H9.86611H9.86613H9.86614H9.86616H9.86618H9.8662H9.86621H9.86623H9.86625H9.86627H9.86628H9.8663H9.86632H9.86634H9.86635H9.86637H9.86639H9.86641H9.86642H9.86644H9.86646H9.86647H9.86649H9.86651H9.86653H9.86654H9.86656H9.86658H9.8666H9.86661H9.86663H9.86665H9.86667H9.86668H9.8667H9.86672H9.86674H9.86675H9.86677H9.86679H9.86681H9.86682H9.86684H9.86686H9.86688H9.86689H9.86691H9.86693H9.86695H9.86696H9.86698H9.867H9.86702H9.86703H9.86705H9.86707H9.86708H9.8671H9.86712H9.86714H9.86716H9.86717H9.86719H9.86721H9.86722H9.86724H9.86726H9.86728H9.86729H9.86731H9.86733H9.86735H9.86736H9.86738H9.8674H9.86742H9.86743H9.86745H9.86747H9.86749H9.8675H9.86752H9.86754H9.86756H9.86757H9.86759H9.86761H9.86763H9.86764H9.86766H9.86768H9.8677H9.86771H9.86773H9.86775H9.86777H9.86778H9.8678H9.86782H9.86784H9.86785H9.86787H9.86789H9.8679H9.86792H9.86794H9.86796H9.86797H9.86799H9.86801H9.86803H9.86804H9.86806H9.86808H9.8681H9.86811H9.86813H9.86815H9.86817H9.86818H9.8682H9.86822H9.86824H9.86825H9.86827H9.86829H9.86831H9.86832H9.86834H9.86836H9.86838H9.86839H9.86841H9.86843H9.86845H9.86846H9.86848H9.8685H9.86852H9.86853H9.86855H9.86857H9.86859H9.8686H9.86862H9.86864H9.86865H9.86867H9.86869H9.86871H9.86872H9.86874H9.86876H9.86878H9.86879H9.86881H9.86883H9.86885H9.86886H9.86888H9.8689H9.86892H9.86893H9.86895H9.86897H9.86899H9.869H9.86902H9.86904H9.86906H9.86907H9.86909H9.86911H9.86913H9.86914H9.86916H9.86918H9.8692H9.86921H9.86923H9.86925H9.86927H9.86928H9.8693H9.86932H9.86934H9.86935H9.86937H9.86939H9.8694H9.86942H9.86944H9.86946H9.86947H9.86949H9.86951H9.86953H9.86954H9.86956H9.86958H9.8696H9.86961H9.86963H9.86965H9.86967H9.86968H9.8697H9.86972H9.86974H9.86975H9.86977H9.86979H9.86981H9.86982H9.86984H9.86986H9.86988H9.86989H9.86991H9.86993H9.86995H9.86996H9.86998H9.87H9.87002H9.87003H9.87005H9.87007H9.87008H9.8701H9.87012H9.87014H9.87015H9.87017H9.87019H9.87021H9.87022H9.87024H9.87026H9.87028H9.87029H9.87031H9.87033H9.87035H9.87036H9.87038H9.8704H9.87042H9.87043H9.87045H9.87047H9.87049H9.8705H9.87052H9.87054H9.87056H9.87057H9.87059H9.87061H9.87063H9.87064H9.87066H9.87068H9.8707H9.87071H9.87073H9.87075H9.87077H9.87078H9.8708H9.87082H9.87083H9.87085H9.87087H9.87089H9.8709H9.87092H9.87094H9.87096H9.87097H9.87099H9.87101H9.87103H9.87104H9.87106H9.87108H9.8711H9.87111H9.87113H9.87115H9.87117H9.87118H9.8712H9.87122H9.87124H9.87125H9.87127H9.87129H9.87131H9.87132H9.87134H9.87136H9.87138H9.87139H9.87141H9.87143H9.87145H9.87146H9.87148H9.8715H9.87151H9.87153H9.87155H9.87157H9.87158H9.8716H9.87162H9.87164H9.87165H9.87167H9.87169H9.87171H9.87172H9.87174H9.87176H9.87178H9.87179H9.87181H9.87183H9.87185H9.87186H9.87188H9.8719H9.87192H9.87193H9.87195H9.87197H9.87199H9.872H9.87202H9.87204H9.87206H9.87207H9.87209H9.87211H9.87213H9.87214H9.87216H9.87218H9.8722H9.87221H9.87223H9.87225H9.87226H9.87228H9.8723H9.87232H9.87233H9.87235H9.87237H9.87239H9.8724H9.87242H9.87244H9.87246H9.87247H9.87249H9.87251H9.87253H9.87254H9.87256H9.87258H9.8726H9.87261H9.87263H9.87265H9.87267H9.87268H9.8727H9.87272H9.87274H9.87275H9.87277H9.87279H9.87281H9.87282H9.87284H9.87286H9.87288H9.87289H9.87291H9.87293H9.87295H9.87296H9.87298H9.873H9.87301H9.87303H9.87305H9.87307H9.87308H9.8731H9.87312H9.87314H9.87315H9.87317H9.87319H9.87321H9.87322H9.87324H9.87326H9.87328H9.87329H9.87331H9.87333H9.87335H9.87336H9.87338H9.8734H9.87342H9.87343H9.87345H9.87347H9.87349H9.8735H9.87352H9.87354H9.87356H9.87357H9.87359H9.87361H9.87363H9.87364H9.87366H9.87368H9.8737H9.87371H9.87373H9.87375H9.87376H9.87378H9.8738H9.87382H9.87383H9.87385H9.87387H9.87389H9.8739H9.87392H9.87394H9.87396H9.87397H9.87399H9.87401H9.87403H9.87404H9.87406H9.87408H9.8741H9.87411H9.87413H9.87415H9.87417H9.87418H9.8742H9.87422H9.87424H9.87425H9.87427H9.87429H9.87431H9.87432H9.87434H9.87436H9.87438H9.87439H9.87441H9.87443H9.87445H9.87446H9.87448H9.8745H9.87452H9.87453H9.87455H9.87457H9.87458H9.8746H9.87462H9.87464C10.1486 8.7399 10.3711 8.51733 10.3711 8.24339C10.3711 7.96945 10.1486 7.74687 9.87464 7.74687H9.87462H9.87459H9.87457H9.87455H9.87453H9.87451H9.87449H9.87446H9.87444H9.87442H9.8744H9.87438H9.87436H9.87433H9.87431H9.87429H9.87427H9.87425H9.87423H9.8742H9.87418H9.87416H9.87414H9.87412H9.8741H9.87408H9.87405H9.87403H9.87401H9.87399H9.87397H9.87395H9.87393H9.87391H9.87388H9.87386H9.87384H9.87382H9.8738H9.87378H9.87376H9.87374H9.87371H9.87369H9.87367H9.87365H9.87363H9.87361H9.87359H9.87357H9.87355H9.87353H9.8735H9.87348H9.87346H9.87344H9.87342H9.8734H9.87338H9.87336H9.87334H9.87332H9.8733H9.87328H9.87325H9.87323H9.87321H9.87319H9.87317H9.87315H9.87313H9.87311H9.87309H9.87307H9.87305H9.87303H9.87301H9.87299H9.87297H9.87294H9.87292H9.8729H9.87288H9.87286H9.87284H9.87282H9.8728H9.87278H9.87276H9.87274H9.87272H9.8727H9.87268H9.87266H9.87264H9.87262H9.8726H9.87258H9.87256H9.87254H9.87252H9.8725H9.87248H9.87246H9.87244H9.87242H9.8724H9.87238H9.87235H9.87233H9.87231H9.87229H9.87227H9.87225H9.87223H9.87221H9.87219H9.87217H9.87215H9.87213H9.87211H9.87209H9.87207H9.87205H9.87203H9.87201H9.87199H9.87197H9.87195H9.87193H9.87191H9.87189H9.87187H9.87186H9.87184H9.87182H9.8718H9.87178H9.87176H9.87174H9.87172H9.8717H9.87168H9.87166H9.87164H9.87162H9.8716H9.87158H9.87156H9.87154H9.87152H9.8715H9.87148H9.87146H9.87144H9.87142H9.8714H9.87138H9.87136H9.87134H9.87132H9.8713H9.87129H9.87127H9.87125H9.87123H9.87121H9.87119H9.87117H9.87115H9.87113H9.87111H9.87109H9.87107H9.87105H9.87103H9.87101H9.871H9.87098H9.87096H9.87094H9.87092H9.8709H9.87088H9.87086H9.87084H9.87082H9.8708H9.87078H9.87076H9.87074H9.87073H9.87071H9.87069H9.87067H9.87065H9.87063H9.87061H9.87059H9.87057H9.87055H9.87053H9.87052H9.8705H9.87048H9.87046H9.87044H9.87042H9.8704H9.87038H9.87036H9.87034H9.87033H9.87031H9.87029H9.87027H9.87025H9.87023H9.87021H9.87019H9.87017H9.87016H9.87014H9.87012H9.8701H9.87008H9.87006H9.87004H9.87002H9.87001H9.86999H9.86997H9.86995H9.86993H9.86991H9.86989H9.86987H9.86986H9.86984H9.86982H9.8698H9.86978H9.86976H9.86974H9.86973H9.86971H9.86969H9.86967H9.86965H9.86963H9.86961H9.8696H9.86958H9.86956H9.86954H9.86952H9.8695H9.86948H9.86946H9.86945H9.86943H9.86941H9.86939H9.86937H9.86935H9.86934H9.86932H9.8693H9.86928H9.86926H9.86924H9.86923H9.86921H9.86919H9.86917H9.86915H9.86913H9.86911H9.8691H9.86908H9.86906H9.86904H9.86902H9.869H9.86899H9.86897H9.86895H9.86893H9.86891H9.8689H9.86888H9.86886H9.86884H9.86882H9.8688H9.86879H9.86877H9.86875H9.86873H9.86871H9.86869H9.86868H9.86866H9.86864H9.86862H9.8686H9.86859H9.86857H9.86855H9.86853H9.86851H9.86849H9.86848H9.86846H9.86844H9.86842H9.8684H9.86839H9.86837H9.86835H9.86833H9.86831H9.8683H9.86828H9.86826H9.86824H9.86822H9.86821H9.86819H9.86817H9.86815H9.86813H9.86812H9.8681H9.86808H9.86806H9.86804H9.86803H9.86801H9.86799H9.86797H9.86795H9.86794H9.86792H9.8679H9.86788H9.86787H9.86785H9.86783H9.86781H9.86779H9.86778H9.86776H9.86774H9.86772H9.8677H9.86769H9.86767H9.86765H9.86763H9.86762H9.8676H9.86758H9.86756H9.86754H9.86753H9.86751H9.86749H9.86747H9.86746H9.86744H9.86742H9.8674H9.86738H9.86737H9.86735H9.86733H9.86731H9.8673H9.86728H9.86726H9.86724H9.86722H9.86721H9.86719H9.86717H9.86715H9.86714H9.86712H9.8671H9.86708H9.86706H9.86705H9.86703H9.86701H9.86699H9.86698H9.86696H9.86694H9.86692H9.86691H9.86689H9.86687H9.86685H9.86684H9.86682H9.8668H9.86678H9.86677H9.86675H9.86673H9.86671H9.86669H9.86668H9.86666H9.86664H9.86662H9.86661H9.86659H9.86657H9.86655H9.86654H9.86652H9.8665H9.86648H9.86647H9.86645H9.86643H9.86641H9.8664H9.86638H9.86636H9.86634H9.86633H9.86631H9.86629H9.86627H9.86626H9.86624H9.86622H9.8662H9.86619H9.86617H9.86615H9.86613H9.86612H9.8661H9.86608H9.86606H9.86604H9.86603H9.86601H9.86599H9.86597H9.86596H9.86594H9.86592H9.8659H9.86589H9.86587H9.86585H9.86583H9.86582H9.8658H9.86578H9.86577H9.86575H9.86573H9.86571H9.86569H9.86568H9.86566H9.86564H9.86563H9.86561H9.86559H9.86557H9.86556H9.86554H9.86552H9.8655H9.86549H9.86547H9.86545H9.86543H9.86542H9.8654H9.86538H9.86536H9.86535H9.86533H9.86531H9.86529H9.86528H9.86526H9.86524H9.86522H9.86521H9.86519H9.86517H9.86515H9.86514H9.86512H9.8651H9.86508H9.86507H9.86505H9.86503H9.86501H9.865H9.86498H9.86496C9.00646 7.74687 8.13754 7.79759 7.28204 7.89754C5.64547 8.08879 4.41143 9.48186 4.41143 11.139V18.2765C4.41143 18.528 4.59926 18.7399 4.84918 18.7697Z" fill="#272727" stroke="#272727" stroke-width="0.1"/>
<path d="M14.8919 15.9077C15.0935 16.4963 15.4076 16.849 15.8258 16.9547C15.904 16.9748 15.9761 17.015 16.0334 17.0723C16.2076 17.2464 16.2076 17.5292 16.0334 17.7041M14.8919 15.9077L14.9392 15.8915C15.138 16.4718 15.4428 16.8064 15.8381 16.9062L15.8383 16.9063C15.9247 16.9285 16.0049 16.9731 16.0688 17.037C16.2625 17.2306 16.2624 17.5449 16.069 17.7393M14.8919 15.9077L13.274 11.1798L14.8919 15.9077ZM16.069 17.7393C16.069 17.7392 16.0691 17.7392 16.0691 17.7392L16.0334 17.7041M16.069 17.7393C16.0689 17.7393 16.0689 17.7394 16.0689 17.7394L16.0334 17.7041M16.069 17.7393C15.9727 17.8372 15.845 17.8851 15.7187 17.8851C15.6699 17.8851 15.6215 17.8777 15.5749 17.8639M16.0334 17.7041C15.9471 17.7919 15.8325 17.8351 15.7187 17.8351C15.6747 17.8351 15.6308 17.8284 15.5884 17.8157M15.5884 17.8157L15.5757 17.8641C15.5754 17.864 15.5752 17.864 15.5749 17.8639M15.5884 17.8157L15.5741 17.8637C15.5744 17.8637 15.5747 17.8638 15.5749 17.8639M15.5884 17.8157L13.3213 11.1637C13.2327 10.9045 12.9497 10.7664 12.6908 10.8549C12.4316 10.9435 12.2935 11.2265 12.382 11.4855L12.3821 11.4855L13.9999 16.2133C14.3812 17.3278 15.0596 17.7279 15.5749 17.8639M14.9392 15.8914L13.3213 11.1637L14.9392 15.8914Z" fill="#272727" stroke="#272727" stroke-width="0.1"/>
<path d="M15.9011 15.6368L15.901 15.6367L14.3695 11.1613C14.3695 11.1613 14.3695 11.1612 14.3695 11.1612C14.1169 10.4306 13.8836 9.89308 13.5775 9.52189C13.2741 9.15382 12.8974 8.94731 12.3504 8.88394L12.3503 8.88393C11.5299 8.78816 10.6969 8.7399 9.87278 8.7399C9.59884 8.7399 9.37627 8.51733 9.37627 8.24339C9.37627 7.96945 9.59884 7.74687 9.87278 7.74687C10.735 7.74687 11.6069 7.79759 12.4646 7.89754L15.9011 15.6368ZM15.9011 15.6368C15.9722 15.8427 16.1641 15.9726 16.371 15.9726C16.4238 15.9726 16.4784 15.9644 16.5316 15.9461L16.5154 15.8988L16.5316 15.9461C16.7907 15.8576 16.9288 15.5746 16.8403 15.3156L16.8403 15.3156L15.308 10.8385L15.3079 10.8384M15.9011 15.6368L15.3079 10.8384M15.3079 10.8384C15.0627 10.1295 14.7919 9.44529 14.3628 8.9133M15.3079 10.8384L14.3628 8.9133M14.3628 8.9133C13.9317 8.37895 13.3421 7.99958 12.4646 7.89754L14.3628 8.9133Z" fill="#272727" stroke="#272727" stroke-width="0.1"/>
<path d="M19.9984 14.3001L19.9984 14.3002L20.5488 14.6776L20.5553 14.7272C20.5555 14.7272 20.5557 14.7271 20.5559 14.7271C20.8271 14.6912 21.0179 14.4422 20.9824 14.1703L20.9824 14.1702L20.6311 11.5061C20.6311 11.5061 20.6311 11.5061 20.6311 11.5061C20.5955 11.2345 20.3463 11.0434 20.0742 11.079L20.0742 11.079C19.8026 11.1146 19.6116 11.3638 19.6471 11.6359L19.6471 11.636L19.9984 14.3001Z" fill="#272727" stroke="#272727" stroke-width="0.1"/>
<path d="M20.4895 14.7231H25.0759C25.3498 14.7231 25.5724 14.5005 25.5724 14.2265C25.5724 13.9526 25.3498 13.73 25.0759 13.73H20.4895C20.2155 13.73 19.993 13.9526 19.993 14.2265C19.993 14.5005 20.2155 14.7231 20.4895 14.7231Z" fill="#272727" stroke="#272727" stroke-width="0.1"/>
<path d="M15.4907 17.8293L15.4902 17.829C15.2708 17.7164 15.1683 17.4598 15.2477 17.2267L15.2477 17.2266L17.3493 11.0856L17.3494 11.0854C17.6546 10.2037 18.009 9.54722 18.46 9.07235C18.9118 8.59656 19.458 8.30586 20.1413 8.15141C20.9006 7.97952 21.668 7.98493 22.4039 7.99011L22.4135 7.99018C22.5378 7.99093 22.6619 7.99167 22.786 7.99167C23.0599 7.99167 23.2825 8.21424 23.2825 8.48818C23.2825 8.76212 23.0599 8.98469 22.786 8.98469C22.6601 8.98469 22.5334 8.98395 22.4067 8.98246C22.4067 8.98246 22.4067 8.98245 22.4066 8.98245L22.4059 8.98245C21.684 8.97723 21.01 8.97237 20.3606 9.1189L15.4907 17.8293ZM15.4907 17.8293L15.4916 17.8297M15.4907 17.8293L15.4916 17.8297M17.7322 16.0305L17.7323 16.0305L19.6828 11.3772L17.7322 16.0305ZM17.7322 16.0305L17.7317 16.0319L17.7322 16.0305ZM15.4916 17.8297C15.5277 17.8478 15.9946 18.0816 16.5884 18.0816M15.4916 17.8297L16.5884 18.0816M16.5884 18.0816C16.8258 18.0816 17.0847 18.0443 17.3448 17.938M16.5884 18.0816L17.3448 17.938M18.2893 11.4075C18.5406 10.6805 18.8069 10.1659 19.1352 9.8044C19.4622 9.44433 19.8533 9.23345 20.3605 9.11891L18.2893 11.4075ZM18.2893 11.4075C18.2893 11.4075 18.2893 11.4076 18.2893 11.4076L16.3523 17.0681C16.5404 17.0996 16.7668 17.1021 16.9802 17.0149C17.2946 16.8858 17.5463 16.5713 17.7204 16.0626C17.7205 16.0624 17.7206 16.0622 17.7206 16.0619L17.768 16.0781L18.2893 11.4075ZM18.6534 16.3996L20.598 11.7612L18.6539 16.3981C18.6537 16.3986 18.6536 16.3991 18.6534 16.3996ZM18.6534 16.3996C18.3844 17.1754 17.9455 17.6961 17.3448 17.938M18.6534 16.3996L17.3448 17.938M20.598 11.7612C20.7048 11.5086 20.5855 11.2174 20.3324 11.1115L20.5981 11.7611L20.598 11.7612Z" fill="#272727" stroke="#272727" stroke-width="0.1"/>
<path d="M21.0565 6.80571L21.0565 6.8057C20.941 6.43894 20.8439 5.85584 20.7879 5.2078C20.669 3.92985 20.9175 2.97838 21.5434 2.39757L21.5434 2.39757C22.2284 1.76205 23.1073 1.82848 23.3059 1.85374C23.6578 1.86786 24.1562 1.9881 24.574 2.29865C24.9946 2.61137 25.3311 3.11558 25.3543 3.88985C25.3986 5.37506 24.9575 6.21941 24.4882 6.6943C24.0233 7.16463 23.5366 7.2665 23.4857 7.27582C23.4853 7.27588 23.485 7.27594 23.4847 7.27599L23.4759 7.22678C23.4692 7.22826 23.4632 7.22901 23.4565 7.22975L21.0565 6.80571ZM21.0565 6.80571C21.1829 7.2071 21.5589 7.47696 21.9741 7.47696C22.0062 7.47696 22.038 7.4754 22.0693 7.47311L22.0693 7.47323L22.0727 7.47274L22.0804 7.47169L22.0889 7.47053L22.0891 7.47051L23.4627 7.27937L21.0565 6.80571ZM22.213 3.13145L22.2131 3.13143C22.488 2.87207 22.8473 2.83101 23.045 2.83101C23.0881 2.83101 23.1231 2.83299 23.1472 2.83486C23.1592 2.83579 23.1685 2.83671 23.175 2.83735L23.1831 2.83814L23.1854 2.83831C23.206 2.84135 23.2296 2.84359 23.2499 2.84437L23.2501 2.84437C23.3411 2.84761 23.6139 2.87032 23.8662 3.01542C24.1151 3.15857 24.3474 3.42229 24.3621 3.91812L24.3621 3.91813C24.3927 4.94619 24.1491 5.53412 23.8902 5.86756C23.6356 6.19561 23.3618 6.28287 23.3053 6.29804L21.9953 6.4803C21.9065 6.18353 21.8251 5.67988 21.7768 5.11942L21.7768 5.11905C21.6871 4.1587 21.8453 3.4779 22.213 3.13145Z" fill="#272727" stroke="#272727" stroke-width="0.1"/>
<path d="M23.7129 2.43484C23.6061 2.68728 23.7245 2.97855 23.9769 3.08529C24.2293 3.19207 24.5206 3.0737 24.6273 2.82133L24.6274 2.82125C24.7421 2.54867 25.0011 2.37929 25.3054 2.37929C25.7139 2.37929 26.0465 2.71188 26.0465 3.12036C26.0465 3.52884 25.7139 3.86143 25.3054 3.86143C25.2053 3.86143 25.1247 3.84673 25.0437 3.81377L25.0435 3.81372C24.7893 3.71104 24.5005 3.8345 24.398 4.08922L24.4444 4.1079L24.398 4.08917C24.2953 4.34348 24.4196 4.6322 24.6734 4.73472L24.6736 4.73479C24.8733 4.81465 25.0805 4.85371 25.3061 4.85371C26.2625 4.85371 27.0395 4.07749 27.0395 3.1211C27.0395 2.16475 26.2617 1.38701 25.3054 1.38701C24.6077 1.38701 23.9821 1.79763 23.7129 2.43484ZM23.7129 2.43484L23.759 2.45431M23.7129 2.43484C23.7129 2.43484 23.7129 2.43485 23.7129 2.43486L23.759 2.45431M23.759 2.45431C23.663 2.68129 23.7694 2.94324 23.9964 3.03924C24.2233 3.13524 24.4853 3.02883 24.5813 2.80185L24.6922 4.68836C24.8857 4.76576 25.0866 4.80371 25.3061 4.80371C26.2349 4.80371 26.9895 4.04985 26.9895 3.1211C26.9895 2.19236 26.2341 1.43701 25.3054 1.43701C24.6274 1.43701 24.0202 1.8359 23.759 2.45431Z" fill="#272727" stroke="#272727" stroke-width="0.1"/>
</svg>
