<svg width="32" height="32" viewBox="0 0 32 32" fill="none" xmlns="http://www.w3.org/2000/svg">
<path d="M29.7919 12.9245C29.9089 13.0415 30.062 13.0997 30.2146 13.0997L2.13799 12.8538L2.2087 12.9245C2.2087 12.9245 2.2087 12.9245 2.2087 12.9245C9.81393 5.32003 22.1875 5.32003 29.7919 12.9245Z" fill="#272727" stroke="#272727" stroke-width="0.2"/>
<path d="M26.6512 15.7778C26.7683 15.8948 26.9213 15.9529 27.0739 15.9529C27.2266 15.9529 27.3796 15.8948 27.4967 15.7778C27.7299 15.5445 27.7299 15.1664 27.4967 14.9331C24.4253 11.8617 20.341 10.17 15.9967 10.17C11.6525 10.17 7.56824 11.8617 4.49684 14.9331C4.26355 15.1664 4.26355 15.5445 4.49684 15.7778C4.73012 16.011 5.10823 16.011 5.34152 15.7778C11.2165 9.90276 20.7763 9.90276 26.6512 15.7778Z" fill="#272727" stroke="#272727" stroke-width="0.2"/>
<path d="M23.6042 18.5489C23.7212 18.6659 23.8743 18.7241 24.0269 18.7241C24.1794 18.7241 24.3325 18.666 24.4489 18.5489C24.6822 18.3156 24.6822 17.9375 24.4489 17.7042C19.7929 13.0483 12.2178 13.0483 7.56178 17.7042C7.3285 17.9375 7.3285 18.3156 7.56178 18.5489C7.79507 18.7822 8.17317 18.7822 8.40646 18.5489C12.5966 14.3588 19.4141 14.3588 23.6042 18.5489Z" fill="#272727" stroke="#272727" stroke-width="0.2"/>
<path d="M12.422 22.4046C12.422 24.3776 14.0273 25.9829 16.0003 25.9829C17.9733 25.9829 19.5786 24.3776 19.5786 22.4046C19.5786 20.4316 17.9733 18.827 16.0003 18.827C14.0273 18.827 12.422 20.4316 12.422 22.4046ZM13.617 22.4046C13.617 21.0913 14.6862 20.022 16.0003 20.022C17.3144 20.022 18.3837 21.0906 18.3837 22.4046C18.3837 23.7187 17.3144 24.7879 16.0003 24.7879C14.6862 24.7879 13.617 23.7187 13.617 22.4046Z" fill="#272727" stroke="#272727" stroke-width="0.2"/>
</svg>
