<svg width="32" height="32" viewBox="0 0 32 32" fill="none" xmlns="http://www.w3.org/2000/svg">
<path d="M9.05283 16.0001C9.05283 19.8313 12.1696 22.9473 16.0001 22.9473C19.8306 22.9473 22.9473 19.8313 22.9473 16.0001C22.9473 12.1689 19.8313 9.05283 16.0001 9.05283C12.1689 9.05283 9.05283 12.1689 9.05283 16.0001ZM10.1459 16.0001C10.1459 12.772 12.772 10.1459 16.0001 10.1459C19.2282 10.1459 21.8543 12.772 21.8543 16.0001C21.8543 19.2282 19.2282 21.8543 16.0001 21.8543C12.772 21.8543 10.1459 19.2282 10.1459 16.0001Z" fill="#272727" stroke="#272727" stroke-width="0.2"/>
<path d="M15.4537 6.94858C15.4537 7.25013 15.6987 7.49509 16.0002 7.49509C16.3018 7.49509 16.5467 7.25013 16.5467 6.94858V4.08421C16.5467 3.78265 16.3018 3.5377 16.0002 3.5377C15.6987 3.5377 15.4537 3.78265 15.4537 4.08421V6.94858Z" fill="#272727" stroke="#272727" stroke-width="0.2"/>
<path d="M5.78402 5.78304L5.78386 5.78319C5.57096 5.99701 5.57074 6.343 5.78402 6.55627L9.21323 9.98548C9.31965 10.0919 9.45921 10.1457 9.59947 10.1457C9.73943 10.1457 9.87909 10.0929 9.98646 9.98548L9.98661 9.98533C10.1995 9.77151 10.1997 9.42552 9.98646 9.21224L6.55725 5.78304L6.5571 5.78289C6.34328 5.56998 5.99729 5.56976 5.78402 5.78304L5.78402 5.78304Z" fill="#272727" stroke="#272727" stroke-width="0.2"/>
<path d="M4.08421 16.5467H6.94858C7.25013 16.5467 7.49509 16.3018 7.49509 16.0002C7.49509 15.6987 7.25013 15.4537 6.94858 15.4537H4.08421C3.78265 15.4537 3.5377 15.6987 3.5377 16.0002C3.5377 16.3018 3.78265 16.5467 4.08421 16.5467Z" fill="#272727" stroke="#272727" stroke-width="0.2"/>
<path d="M5.7845 25.4422L5.78435 25.4424C5.57144 25.6562 5.57123 26.0022 5.7845 26.2155C5.89093 26.3219 6.03049 26.3757 6.17075 26.3757C6.30987 26.3757 6.4503 26.3229 6.55774 26.2155L9.98695 22.7863L9.9871 22.7861C10.2 22.5723 10.2002 22.2263 9.98695 22.013L9.98679 22.0129C9.77298 21.8 9.42699 21.7997 9.21371 22.013L5.7845 25.4422Z" fill="#272727" stroke="#272727" stroke-width="0.2"/>
<path d="M15.4537 27.9161C15.4537 28.2177 15.6987 28.4626 16.0002 28.4626C16.3018 28.4626 16.5467 28.2177 16.5467 27.9161V25.0517C16.5467 24.7502 16.3018 24.5052 16.0002 24.5052C15.6987 24.5052 15.4537 24.7502 15.4537 25.0517V27.9161Z" fill="#272727" stroke="#272727" stroke-width="0.2"/>
<path d="M22.015 22.0138L22.0148 22.0139C21.8019 22.2277 21.8017 22.5737 22.015 22.787L25.4442 26.2162C25.5506 26.3226 25.6902 26.3765 25.8304 26.3765C25.9704 26.3765 26.11 26.3236 26.2174 26.2162L26.2176 26.216C26.4305 26.0022 26.4307 25.6562 26.2174 25.443L22.7882 22.0138L22.7881 22.0136C22.5742 21.8007 22.2282 21.8005 22.015 22.0138L22.015 22.0138Z" fill="#272727" stroke="#272727" stroke-width="0.2"/>
<path d="M25.0515 16.5467H27.9159C28.2174 16.5467 28.4624 16.3018 28.4624 16.0002C28.4624 15.6987 28.2174 15.4537 27.9159 15.4537H25.0515C24.7499 15.4537 24.505 15.6987 24.505 16.0002C24.505 16.3018 24.7499 16.5467 25.0515 16.5467Z" fill="#272727" stroke="#272727" stroke-width="0.2"/>
<path d="M22.015 9.21224L22.0148 9.21239C21.8019 9.42621 21.8017 9.7722 22.015 9.98548C22.1214 10.0919 22.261 10.1457 22.4012 10.1457C22.5403 10.1457 22.6808 10.0929 22.7882 9.98548L26.2174 6.55627L26.2176 6.55612C26.4305 6.3423 26.4307 5.99631 26.2174 5.78304L26.2173 5.78289C26.0034 5.56998 25.6575 5.56976 25.4442 5.78304L22.015 9.21224Z" fill="#272727" stroke="#272727" stroke-width="0.2"/>
</svg>
