<svg width="32" height="32" viewBox="0 0 32 32" fill="none" xmlns="http://www.w3.org/2000/svg">
<path d="M8.85095 22.539L8.92075 22.4674C8.70456 22.2567 8.35835 22.2624 8.14813 22.479L8.14809 22.4791C7.586 23.0588 7.27598 23.8235 7.27598 24.6316C7.27598 26.3382 8.66401 27.7262 10.3706 27.7262C12.0771 27.7262 13.4659 26.3375 13.4652 24.6316C13.4652 24.6316 13.4652 24.6316 13.4652 24.6316V16.7351C13.4652 16.4335 13.2202 16.1886 12.9187 16.1886C12.6171 16.1886 12.3722 16.4335 12.3722 16.7351V24.6316C12.3722 25.7351 11.4741 26.6332 10.3706 26.6332C9.26711 26.6332 8.369 25.7351 8.369 24.6316C8.369 24.1091 8.56879 23.6147 8.93239 23.2397C9.14283 23.0229 9.13727 22.6775 8.9206 22.4672L8.85095 22.539ZM8.85095 22.539C9.02807 22.7109 9.03254 22.9929 8.86063 23.1701L13.3652 24.6316C13.3659 26.2822 12.0219 27.6262 10.3706 27.6262C8.71923 27.6262 7.37598 26.283 7.37598 24.6316C7.37598 23.8495 7.67588 23.1098 8.21988 22.5487C8.39179 22.3715 8.67458 22.3671 8.85095 22.539Z" fill="#272727" stroke="#272727" stroke-width="0.2"/>
<path d="M9.3082 20.2025C9.3082 20.5041 9.55316 20.7491 9.85472 20.7491C10.1562 20.7491 10.4012 20.5049 10.4012 20.2025V17.7668C10.4012 17.4653 10.1563 17.2203 9.85472 17.2203C9.55316 17.2203 9.3082 17.4653 9.3082 17.7668V20.2025Z" fill="#272727" stroke="#272727" stroke-width="0.2"/>
<path d="M18.3932 25.1896C18.3932 25.4053 18.4469 25.6056 18.5389 25.7551C18.6298 25.903 18.7687 26.0155 18.9397 26.0155C19.1105 26.0155 19.2494 25.9035 19.3405 25.7556C19.4325 25.6062 19.4862 25.4059 19.4862 25.1896V18.6415C19.4862 18.4257 19.4325 18.2255 19.3405 18.0759C19.2495 17.928 19.1106 17.8155 18.9397 17.8155C18.7687 17.8155 18.6298 17.928 18.5389 18.0759C18.4469 18.2255 18.3932 18.4257 18.3932 18.6415V25.1896Z" fill="#272727" stroke="#272727" stroke-width="0.2"/>
<path d="M18.3932 27.18C18.3932 27.4815 18.6381 27.7265 18.9397 27.7265C19.2412 27.7265 19.4862 27.4815 19.4862 27.18V25.1833C19.4862 24.8818 19.2412 24.6368 18.9397 24.6368C18.6381 24.6368 18.3932 24.8818 18.3932 25.1833V27.18Z" fill="#272727" stroke="#272727" stroke-width="0.2"/>
<path d="M15.3741 24.7873C15.3741 25.0888 15.6191 25.3338 15.9206 25.3338C16.2222 25.3338 16.4671 25.0888 16.4671 24.7873V18.967C16.4671 18.6655 16.2222 18.4205 15.9206 18.4205C15.6191 18.4205 15.3741 18.6655 15.3741 18.967V24.7873Z" fill="#272727" stroke="#272727" stroke-width="0.2"/>
<path d="M27.7038 11.6726L27.7038 11.6726C28.0014 11.7281 28.2868 11.5323 28.3415 11.2352C28.3954 10.9448 28.4227 10.6456 28.4227 10.3464V4.82005C28.4227 4.51849 28.1778 4.27354 27.8762 4.27354H4.04514C3.74359 4.27354 3.49863 4.51849 3.49863 4.82005V10.3464C3.49863 13.0405 5.69038 15.2322 8.38449 15.2322H19.6678C19.9703 15.2322 20.2144 14.9872 20.2144 14.6857C20.2144 14.3842 19.9694 14.1392 19.6678 14.1392H8.38449C6.29349 14.1392 4.59166 12.4374 4.59166 10.3464V5.36656H27.3297V10.3464C27.3297 10.5785 27.3087 10.8105 27.2667 11.035C27.2111 11.332 27.4071 11.6171 27.7038 11.6726Z" fill="#272727" stroke="#272727" stroke-width="0.2"/>
<path d="M8.46458 10.7469H19.4741C19.7765 10.7469 20.0206 10.5019 20.0206 10.2004C20.0206 9.89886 19.7756 9.65391 19.4741 9.65391H8.46458C8.16302 9.65391 7.91807 9.89886 7.91807 10.2004C7.91807 10.502 8.16302 10.7469 8.46458 10.7469Z" fill="#272727" stroke="#272727" stroke-width="0.2"/>
<path d="M23.4563 10.7469H23.46C23.7631 10.7469 24.0043 10.5012 24.0043 10.2004C24.0043 9.89843 23.7574 9.65391 23.4563 9.65391C23.1547 9.65391 22.9098 9.89886 22.9098 10.2004C22.9098 10.502 23.1547 10.7469 23.4563 10.7469Z" fill="#272727" stroke="#272727" stroke-width="0.2"/>
<path d="M8.46458 12.9579H16.635C16.9365 12.9579 17.1815 12.7129 17.1815 12.4114C17.1815 12.1098 16.9365 11.8648 16.635 11.8648H8.46458C8.16302 11.8648 7.91807 12.1098 7.91807 12.4114C7.91807 12.7129 8.16302 12.9579 8.46458 12.9579Z" fill="#272727" stroke="#272727" stroke-width="0.2"/>
<path d="M18.4205 12.2707C18.4205 15.0497 20.6815 17.3099 23.4597 17.3099C26.2379 17.3099 28.4988 15.0497 28.4988 12.2707C28.4988 9.49175 26.2386 7.23154 23.4597 7.23154C20.6807 7.23154 18.4205 9.49175 18.4205 12.2707ZM19.5135 12.2714C19.5135 10.0956 21.2838 8.32531 23.4597 8.32531C25.6355 8.32531 27.4058 10.0956 27.4058 12.2714C27.4058 14.4473 25.6355 16.2176 23.4597 16.2176C21.2838 16.2176 19.5135 14.4473 19.5135 12.2714Z" fill="#272727" stroke="#272727" stroke-width="0.2"/>
<path d="M22.9093 14.3509C22.9093 14.6524 23.1542 14.8974 23.4558 14.8974C23.7572 14.8974 24.0023 14.6533 24.0023 14.3509V10.1916C24.0023 9.89007 23.7573 9.64512 23.4558 9.64512C23.1542 9.64512 22.9093 9.89007 22.9093 10.1916V14.3509Z" fill="#272727" stroke="#272727" stroke-width="0.2"/>
<path d="M21.3772 12.8182H25.5364C25.838 12.8182 26.0829 12.5733 26.0829 12.2717C26.0829 11.9702 25.838 11.7252 25.5364 11.7252H21.3772C21.0756 11.7252 20.8307 11.9702 20.8307 12.2717C20.8307 12.5733 21.0756 12.8182 21.3772 12.8182Z" fill="#272727" stroke="#272727" stroke-width="0.2"/>
<path d="M21.5994 10.4141L21.5993 10.4143C21.3864 10.6281 21.3862 10.9741 21.5994 11.1874L24.5405 14.1284C24.6469 14.2348 24.7864 14.2887 24.9267 14.2887C25.067 14.2887 25.2065 14.2348 25.3129 14.1284L25.3131 14.1282C25.526 13.9144 25.5262 13.5684 25.3129 13.3552L22.3719 10.4141C22.1587 10.201 21.8126 10.201 21.5994 10.4141L21.5994 10.4141Z" fill="#272727" stroke="#272727" stroke-width="0.2"/>
<path d="M21.5994 13.3552L21.5993 13.3553C21.3864 13.5691 21.3862 13.9151 21.5994 14.1284C21.7059 14.2348 21.8454 14.2887 21.9857 14.2887C22.1251 14.2887 22.2655 14.2349 22.3719 14.1284L25.3129 11.1874L25.3131 11.1872C25.526 10.9734 25.5262 10.6274 25.3129 10.4141C25.0998 10.201 24.7537 10.201 24.5405 10.4141L21.5994 13.3552Z" fill="#272727" stroke="#272727" stroke-width="0.2"/>
<path d="M7.68955 7.03476C7.68955 7.45985 8.03423 7.80453 8.45932 7.80453C8.88427 7.80453 9.22984 7.45999 9.22984 7.03476C9.22984 6.60967 8.88516 6.26499 8.46007 6.26499H8.45932C8.03341 6.26499 7.68955 6.60974 7.68955 7.03476Z" fill="#272727" stroke="#272727" stroke-width="0.2"/>
</svg>
