<svg width="32" height="32" viewBox="0 0 32 32" fill="none" xmlns="http://www.w3.org/2000/svg">
<path d="M15.6792 7.626C15.5022 7.7994 15.5022 8.08098 15.6792 8.25438C15.7683 8.34158 15.8839 8.3844 15.9992 8.3844C16.1144 8.3844 16.2301 8.34162 16.3185 8.25433C16.3186 8.25431 16.3186 8.25429 16.3186 8.25427L19.9289 4.71808C20.1059 4.54468 20.1059 4.2631 19.9289 4.0897C19.7523 3.91677 19.4662 3.91677 19.2896 4.0897L19.2896 4.08971L15.6792 7.626ZM15.6792 7.626L15.7072 7.65456L15.6792 7.62601L15.6792 7.626Z" fill="#3E86F5" stroke="#3E86F5" stroke-width="0.08"/>
<path d="M15.6792 8.25438L15.6792 8.25438L12.0689 4.71808L12.0689 4.71808L12.0969 4.6895C11.9358 4.53179 11.9358 4.27599 12.0969 4.11828C12.2579 3.96057 12.5191 3.96057 12.6801 4.11828L16.2905 7.65458C16.4516 7.81229 16.4516 8.06809 16.2905 8.2258L15.6792 8.25438ZM15.6792 8.25438C15.7683 8.34158 15.8839 8.3844 15.9992 8.3844C16.1144 8.3844 16.2301 8.34163 16.3185 8.25438H15.6792Z" fill="#3E86F5" stroke="#3E86F5" stroke-width="0.08"/>
<path d="M5.85294 27.4977L5.85297 27.4975L6.2828 25.6477H5.20782C4.52076 25.6477 3.96 25.1004 3.96 24.4248V9.30261C3.96 8.62773 4.52075 8.07978 5.20782 8.07978H14.4508C14.6469 7.42285 15.2672 6.94311 15.9997 6.94311C16.7322 6.94311 17.3519 7.42352 17.5485 8.07978H26.7922C27.4792 8.07978 28.04 8.62708 28.04 9.30261V24.4255C28.04 25.1004 27.4793 25.6483 26.7922 25.6483H25.712L26.1418 27.4982L26.1418 27.4983C26.1721 27.6302 26.1404 27.7685 26.0539 27.8743C25.9676 27.98 25.8369 28.0402 25.6996 28.0402H24.6279C24.4489 28.0402 24.2857 27.9365 24.2137 27.7748M5.85294 27.4977L7.7798 27.7748L8.73217 25.6477H23.2613L24.2137 27.7748M5.85294 27.4977C5.8227 27.6295 5.8544 27.7678 5.94082 27.8736C6.02648 27.9793 6.15644 28.0402 6.29388 28.0402H7.36554C7.54454 28.0402 7.7077 27.9365 7.77978 27.7749L5.85294 27.4977ZM24.2137 27.7748L24.2502 27.7586M24.2137 27.7748L24.2137 27.7749L24.2502 27.7586M24.2502 27.7586C24.3156 27.9054 24.4643 28.0002 24.6279 28.0002H25.6996C25.8253 28.0002 25.9444 27.9451 26.023 27.8489C26.1015 27.7528 26.1303 27.6271 26.1028 27.5072L25.6709 25.6483L24.2502 27.7586ZM26.7922 25.6083H25.7027L15.9997 6.98311C16.725 6.98311 17.3365 7.46586 17.5185 8.11978H26.7922C27.458 8.11978 28 8.64997 28 9.30261V24.4255C28 25.0775 27.458 25.6083 26.7922 25.6083ZM24.2497 25.6477H24.7834L25.1327 27.1525H24.9235L24.2497 25.6477ZM7.74438 25.6477L7.07056 27.1525H6.8614L7.21074 25.6477H7.74438ZM26.7915 24.7599H25.1529C25.1485 24.7599 25.1415 24.7599 25.134 24.7605H23.5661H23.566H23.566H23.566H23.5659H23.5659H23.5659H23.5658H23.5658H23.5658H23.5657H23.5657H23.5657H23.5656H23.5656H23.5656H23.5655H23.5655H23.5655H23.5654H23.5654H23.5653H23.5653H23.5653H23.5652H23.5652H23.5652H23.5651H23.5651H23.5651H23.565H23.565H23.565H23.5649H23.5649H23.5649H23.5648H23.5648H23.5648H23.5647H23.5647H23.5647H23.5646H23.5646H23.5645H23.5645H23.5645H23.5644H23.5644H23.5644H23.5643H23.5643H23.5643H23.5642H23.5642H23.5642H23.5641H23.5641H23.5641H23.564H23.564H23.5639H23.5639H23.5639H23.5638H23.5638H23.5638H23.5637H23.5637H23.5637H23.5636H23.5636H23.5636H23.5635H23.5635H23.5635H23.5634H23.5634H23.5633H23.5633H23.5633H23.5632H23.5632H23.5632H23.5631H23.5631H23.5631H23.563H23.563H23.563H23.5629H23.5629H23.5628H23.5628H23.5628H23.5627H23.5627H23.5627H23.5626H23.5626H23.5626H23.5625H23.5625H23.5625H23.5624H23.5624H23.5623H23.5623H23.5623H23.5622H23.5622H23.5622H23.5621H23.5621H23.5621H23.562H23.562H23.562H23.5619H23.5619H23.5618H23.5618H23.5618H23.5617H23.5617H23.5617H23.5616H23.5616H23.5616H23.5615H23.5615H23.5614H23.5614H23.5614H23.5613H23.5613H23.5613H23.5612H23.5612H23.5612H23.5611H23.5611H23.5611H23.561H23.561H23.5609H23.5609H23.5609H23.5608H23.5608H23.5608H23.5607H23.5607H23.5607H23.5606H23.5606H23.5605H23.5605H23.5605H23.5604H23.5604H23.5604H23.5603H23.5603H23.5603H23.5602H23.5602H23.5602H23.5601H23.5601H23.56H23.56H23.56H23.5599H23.5599H23.5599H23.5598H23.5598H23.5598H23.5597H23.5597H23.5596H23.5596H23.5596H23.5595H23.5595H23.5595H23.5594H23.5594H23.5594H23.5593H23.5593H23.5592H23.5592H23.5592H23.5591H23.5591H23.5591H23.559H23.559H23.559H23.5589H23.5589H23.5588H23.5588H23.5588H23.5587H23.5587H23.5587H23.5586H23.5586H23.5586H23.5585H23.5585H23.5584H23.5584H23.5584H23.5583H23.5583H23.5583H23.5582H23.5582H23.5582H23.5581H23.5581H23.558H23.558H23.558H23.5579H23.5579H23.5579H23.5578H23.5578H23.5578H23.5577H23.5577H23.5576H23.5576H23.5576H23.5575H23.5575H23.5575H23.5574H23.5574H23.5574H23.5573H23.5573H23.5572H23.5572H23.5572H23.5571H23.5571H23.5571H23.557H23.557H23.5569H23.5569H23.5569H23.5568H23.5568H23.5568H23.5567H23.5567H23.5567H23.5566H23.5566H23.5565H23.5565H23.5565H23.5564H23.5564H23.5564H23.5563H23.5563H23.5563H23.5562H23.5562H23.5561H23.5561H23.5561H23.556H23.556H23.556H23.5559H23.5559H23.5559H23.5558H23.5558H23.5557H23.5557H23.5557H23.5556H23.5556H23.5556H23.5555H23.5555H23.5555H23.5554H23.5554H23.5553H23.5553H23.5553H23.5552H23.5552H23.5552H23.5551H23.5551H23.5551H23.555H23.555H23.5549H23.5549H23.5549H23.5548H23.5548H23.5548H23.5547H23.5547H23.5547H23.5546H23.5546H23.5545H23.5545H23.5545H23.5544H23.5544H23.5544H23.5543H23.5543H23.5543H23.5542H23.5542H23.5541H23.5541H23.5541H23.554H23.554H23.554H23.5539H23.5539H23.5539H23.5538H23.5538H23.5537H23.5537H23.5537H23.5536H23.5536H23.5536H23.5535H23.5535H23.5535H23.5534H23.5534H23.5534H23.5533H23.5533H23.5532H23.5532H23.5532H23.5531H23.5531H23.5531H23.553H23.553H23.553H23.5529H23.5529H23.5528H23.5528H23.5528H23.5527H23.5527H23.5527H23.5526H23.5526H23.5526H23.5525H23.5525H23.5525H23.5524H23.5524H23.5523H23.5523H23.5523H23.5522H23.5522H23.5522H23.5521H23.5521H23.5521H23.552H23.552H23.5519H23.5519H23.5519H23.5518H23.5518H23.5518H23.5517H23.5517H23.5517H23.5516H23.5516H23.5516H23.5515H23.5515H23.5514H23.5514H23.5514H23.5513H23.5513H23.5513H23.5512H23.5512H23.5512H23.5511H23.5511H23.5511H23.551H23.551H23.5509H23.5509H23.5509H23.5508H23.5508H23.5508H23.5507H23.5507H23.5507H23.5506H23.5506H23.5506H23.5505H23.5505H23.5504H23.5504H23.5504H23.5503H23.5503H23.5503H23.5502H23.5502H23.5502H23.5501H23.5501H23.5501H23.55H23.55H23.5499H23.5499H23.5499H23.5498H23.5498H23.5498H23.5497H23.5497H23.5497H23.5496H23.5496H23.5496H23.5495H23.5495H23.5495H23.5494H23.5494H23.5494H23.5493H23.5493H23.5492H23.5492H23.5492H23.5491H23.5491H23.5491H23.549H23.549H23.549H23.5489H23.5489H23.5489H23.5488H23.5488H23.5488H23.5487H23.5487H23.5487H23.5486H23.5486H23.5485H23.5485H23.5485H23.5484H23.5484H23.5484H23.5483H23.5483H23.5483H23.5482H23.5482H23.5482H23.5481H23.5481H23.5481H23.548H23.548H23.548H23.5479H23.5479H23.5479H23.5478H23.5478H23.5477H8.44636H8.44633H8.44629H8.44626H8.44622H8.44619H8.44615H8.44612H8.44608H8.44605H8.44601H8.44598H8.44594H8.44591H8.44588H8.44584H8.44581H8.44577H8.44574H8.4457H8.44567H8.44563H8.4456H8.44556H8.44553H8.44549H8.44546H8.44542H8.44539H8.44535H8.44532H8.44528H8.44525H8.44521H8.44518H8.44514H8.44511H8.44507H8.44504H8.445H8.44497H8.44493H8.4449H8.44486H8.44483H8.44479H8.44476H8.44472H8.44469H8.44465H8.44462H8.44458H8.44455H8.44451H8.44448H8.44444H8.44441H8.44437H8.44433H8.4443H8.44426H8.44423H8.44419H8.44416H8.44412H8.44409H8.44405H8.44402H8.44398H8.44395H8.44391H8.44387H8.44384H8.4438H8.44377H8.44373H8.4437H8.44366H8.44363H8.44359H8.44356H8.44352H8.44348H8.44345H8.44341H8.44338H8.44334H8.44331H8.44327H8.44324H8.4432H8.44316H8.44313H8.44309H8.44306H8.44302H8.44299H8.44295H8.44291H8.44288H8.44284H8.44281H8.44277H8.44274H8.4427H8.44266H8.44263H8.44259H8.44256H8.44252H8.44248H8.44245H8.44241H8.44238H8.44234H8.44231H8.44227H8.44223H8.4422H8.44216H8.44213H8.44209H8.44205H8.44202H8.44198H8.44195H8.44191H8.44187H8.44184H8.4418H8.44177H8.44173H8.4417H8.44166H8.44162H8.44159H8.44155H8.44151H8.44148H8.44144H8.44141H8.44137H8.44133H8.4413H8.44126H8.44123H8.44119H8.44115H8.44112H8.44108H8.44105H8.44101H8.44097H8.44094H8.4409H8.44087H8.44083H8.44079H8.44076H8.44072H8.44068H8.44065H8.44061H8.44058H8.44054H8.4405H8.44047H8.44043H8.4404H8.44036H8.44032H8.44029H8.44025H8.44021H8.44018H8.44014H8.44011H8.44007H8.44003H8.44H8.43996H8.43992H8.43989H8.43985H8.43982H8.43978H8.43974H8.43971H8.43967H8.43963H8.4396H8.43956H8.43952H8.43949H8.43945H8.43942H8.43938H8.43934H8.43931H8.43927H8.43923H8.4392H8.43916H8.43913H8.43909H8.43905H8.43902H8.43898H8.43894H8.43891H8.43887H8.43883H8.4388H8.43876H8.43872H8.43869H8.43865H8.43862H8.43858H8.43854H8.43851H8.43847H8.43843H8.4384H8.43836H8.43832H8.43829H8.43825H8.43822H8.43818H8.43814H8.43811H8.43807H8.43803H8.438H8.43796H8.43792H8.43789H8.43785H8.43781H8.43778H8.43774H8.43771H8.43767H8.43763H8.4376H8.43756H8.43752H8.43749H8.43745H8.43741H8.43738H8.43734H8.4373H8.43727H8.43723H8.4372H8.43716H8.43712H8.43709H8.43705H8.43701H8.43698H8.43694H8.4369H8.43687H8.43683H8.43679H8.43676H8.43672H8.43669H8.43665H8.43661H8.43658H8.43654H8.4365H8.43647H8.43643H8.43639H8.43636H8.43632H8.43628H8.43625H8.43621H8.43617H8.43614H8.4361H8.43607H8.43603H8.43599H8.43596H8.43592H8.43588H8.43585H8.43581H8.43577H8.43574H8.4357H8.43567H8.43563H8.43559H8.43556H8.43552H8.43548H8.43545H8.43541H8.43537H8.43534H8.4353H8.43527H8.43523H8.43519H8.43516H8.43512H8.43508H8.43505H8.43501H8.43497H8.43494H8.4349H8.43487H8.43483H8.43479H8.43476H8.43472H8.43468H8.43465H8.43461H8.43458H8.43454H8.4345H8.43447H8.43443H8.43439H8.43436H8.43432H8.43428H8.43425H8.43421H8.43418H8.43414H8.4341H8.43407H8.43403H8.434H8.43396H8.43392H8.43389H8.43385H8.43381H8.43378H8.43374H8.43371H8.43367H8.43363H8.4336H8.43356H8.43352H8.43349H8.43345H8.43342H8.43338H8.43334H8.43331H8.43327H8.43324H8.4332H8.43316H8.43313H8.43309H8.43306H8.43302H8.43298H8.43295H8.43291H8.43288H8.43284H8.4328H8.43277H8.43273H8.43269H8.43266H8.43262H8.43259H8.43255H8.43252H8.43248H8.43244H8.43241H8.43237H8.43234H8.4323H8.43226H8.43223H8.43219H8.43216H8.43212H8.43208H8.43205H8.43201H8.43198H8.43194H8.43191H8.43187H8.43183H8.4318H8.43176H8.43173H8.43169H8.43165H8.43162H8.43158H8.43155H8.43151H8.43148H8.43144H8.4314H8.43137H8.43133H8.4313H8.43126H8.43123H8.43119H8.43116H8.43112H8.43108H8.43105H8.43101H8.43098H8.43094H8.43091H8.43087H8.43083H8.4308H8.43076H8.43073H8.43069H8.43066H8.43062H8.43059H8.43055H8.43052H8.43048H8.43044H8.43041H8.43037H8.43034H8.4303H8.43027H8.43023H8.4302H8.43016H8.43013H8.43009H8.43006H8.43002H8.42999H8.42995H8.42991H8.42988H8.42984H8.42981H8.42977H8.42974H8.4297H8.42967H8.42963H8.4296H8.42956H8.42953H8.42949H8.42946H8.42942H8.42939H8.42935H8.42932H8.42928H8.42925H8.42921H8.42918H8.42914H8.42911H8.42907H8.42904H8.429H8.42897H8.42893H8.4289H8.42886H8.42883H8.42879H8.42876H8.42872H8.42869H8.42865H8.42862H8.42858H8.42855H8.42851H8.42848H8.42845H8.42841H8.42838H8.42834H8.42831H8.42827H8.42824H8.4282H8.42817H8.42813H8.4281H8.42806H8.42803H6.85819H6.85816H6.85813H6.8581H6.85806H6.85803H6.858H6.85797H6.85794H6.85791H6.85788H6.85785H6.85782H6.85779H6.85776H6.85773H6.85769H6.85766H6.85763H6.8576H6.85757H6.85754H6.85751H6.85748H6.85745H6.85742H6.85738H6.85735H6.85732H6.85729H6.85726H6.85723H6.8572H6.85717H6.85714H6.8571H6.85707H6.85704H6.85701H6.85698H6.85695H6.85692H6.85689H6.85685H6.85682H6.85679H6.85676H6.85673H6.8567H6.85667H6.85663H6.8566H6.85657H6.85654H6.85651H6.85648H6.85645H6.85641H6.85638H6.85635H6.85632H6.85629H6.85626H6.85623H6.85619H6.85616H6.85613H6.8561H6.85607H6.85604H6.856H6.85597H6.85594H6.85591H6.85588H6.85585H6.85581H6.85578H6.85575H6.85572H6.85569H6.85566H6.85562H6.85559H6.85556H6.85553H6.8555H6.85546H6.85543H6.8554H6.85537H6.85534H6.8553H6.85527H6.85524H6.85521H6.85518H6.85514H6.85511H6.85508H6.85505H6.85502H6.85498H6.85495H6.85492H6.85489H6.85486H6.85482H6.85479H6.85476H6.85473H6.8547H6.85466H6.85463H6.8546H6.85457H6.85453H6.8545H6.85447H6.85444H6.85441H6.85437H6.85434H6.85431H6.85428H6.85424H6.85421H6.85418H6.85415H6.85411H6.85408H6.85405H6.85402H6.85399H6.85395H6.85392H6.85389H6.85386H6.85382H6.85379H6.85376H6.85373H6.85369H6.85366H6.85363H6.8536H6.85356H6.85353H6.8535H6.85346H6.85343H6.8534H6.85337H6.85333H6.8533H6.85327H6.85324H6.8532H6.85317H6.85314H6.85311H6.85307H6.85304H6.85301H6.85297H6.85294H6.85291H6.85288H6.85284H6.85281H6.85278H6.85275H6.85271H6.85268H6.85265H6.85261H6.85258H6.85255H6.85252H6.85248H6.85245H6.85242H6.85238H6.85235H6.85232H6.85228H6.85225H6.85222H6.85219H6.85215H6.85212H6.85209H6.85205H6.85202H6.85199H6.85195H6.85192H6.85189H6.85186H6.85182H6.85179H6.85176H6.85172H6.85169H6.85166H6.85162H6.85159H6.85156H6.85152H6.85149H6.85146H6.85142H6.85139H6.85136H6.85133H6.85129H6.85126H6.85123H6.85119H6.85116H6.85113H6.85109H6.85106H6.85103H6.85099H6.85096H6.85093H6.85089H6.85086H6.85083H6.85079H6.85076H6.85073H6.85069H6.85066H6.85063H6.85059H6.85056H6.85053H6.85049H6.85046H6.85043H6.85039H6.85036H6.85032H6.85029H6.85026H6.85022H6.85019H6.85016H6.85012H6.85009H6.85006H6.85002H6.84999H6.84996H6.84992H6.84989H6.84986H6.84982H6.84979H6.84975H6.84972H6.84969H6.84965H6.84962H6.84959H6.84955H6.84952H6.84949H6.84945H6.84942H6.84938H6.84935H6.84932H6.84928H6.84925H6.84922H6.84918H6.84915H6.84911H6.84908H6.84905H6.84901H6.84898H6.84895H6.84891H6.84888H6.84884H6.84881H6.84878H6.84874H6.84871H6.84868H6.84864H6.84861H6.84857H6.84854H6.84851H6.84847H6.84844H6.8484H6.84837H6.84834H6.8483H6.84827H6.84824H6.8482H6.84817H6.84813H6.8481H6.84807H6.84803H6.848H6.84796H6.84793H6.8479H6.84786H6.84783H6.84779H6.84776H6.84773H6.84769H6.84766H6.84762H6.84759H6.84756H6.84752H6.84749H6.84745H6.84742H6.84739H6.84735H6.84732H6.84728H6.84725H6.84722H6.84718H6.84715H6.84711H6.84708H6.84705H6.84701H6.84698H6.84694H6.84691H6.84687H6.84684H6.84681H6.84677H6.84674H6.8467H6.84667H6.84664H6.8466H6.84657H6.84653H6.8465H6.84647H6.84643H6.8464H6.84636H6.84633H6.84629H6.84626H6.84623H6.84619H6.84616H6.84612H6.84609H6.84605H6.84602H6.84599H6.84595H6.84592H6.84588H6.84585H6.84581H6.84578H6.84575H6.84571H6.84568H6.84564H6.84561H6.84558H6.84554H6.84551H6.84547H6.84544H6.8454H6.84537H6.84534H6.8453H6.84527H6.84523H6.8452H6.84516H6.84513H6.84509H6.84506H6.84503H6.84499H6.84496H6.84492H6.84489H6.84485H6.84482H6.84479H6.84475H6.84472H6.84468H6.84465H6.84461H6.84458H6.84455H6.84451H6.84448H6.84444H6.84441H6.84437H6.84434H6.8443H6.84427H6.84424H6.8442H6.84417H6.84413H6.8441H6.84406H6.84403H6.84399H6.84396H6.84393H6.84389H6.84386H6.84382H6.84379H6.84375H6.84372H6.84368H6.84365H6.84362H6.84358H6.84355H6.84351H6.84348H6.84344H6.84341H6.84337H6.84334H6.84331H6.84327H6.84324H6.8432H6.84317H6.84313H6.8431H6.84306H6.84303H6.843H6.84296H6.84293H6.84289H6.84286H6.84282H6.84279H6.84275H6.84272H6.84268H6.84265H6.84262H6.84258H6.84255H6.84251H6.84248H6.84244H6.84241H6.84237H6.84234H6.84231H6.84227H6.84224H6.8422H6.84217H6.84213H6.8421H6.84206H6.84203H6.842H6.84196H6.84193H6.84189H6.84186H6.84182H6.84179H6.84175H6.84172H6.84168H6.84165H6.84162H6.84158H6.84155H6.84151H6.84148H6.84144H6.84141H6.84137H6.84134H6.8413H6.84127H6.84124H6.8412H6.84117H5.20782C5.01772 24.7605 4.86485 24.6091 4.86485 24.4255V9.30261C4.86485 9.11845 5.01828 8.96756 5.20782 8.96756H26.7915C26.9816 8.96756 27.1345 9.119 27.1345 9.30261V24.4248C27.1345 24.609 26.9811 24.7599 26.7915 24.7599ZM16.5435 8.07978H15.4559C15.586 7.92778 15.7813 7.8309 15.9997 7.8309C16.218 7.8309 16.4134 7.92778 16.5435 8.07978Z" fill="#3E86F5" stroke="#3E86F5" stroke-width="0.08"/>
<path d="M6.13247 23.6405L6.13228 23.6405C5.9245 23.6188 5.7582 23.4594 5.7315 23.2547M6.13247 23.6405L20.6958 10.4749L20.7354 10.4695C20.7354 10.4695 20.7354 10.4694 20.7354 10.4694C20.7073 10.2633 20.5367 10.1039 20.3262 10.0863M6.13247 23.6405L6.13566 23.6409C6.25459 23.653 9.44226 23.9792 13.2472 23.9792C17.0905 23.9792 20.2787 23.6464 20.3348 23.6406L20.3353 23.6405L20.3354 23.6405M6.13247 23.6405L20.3354 23.6405M5.7315 23.2547C5.72745 23.2242 5.41496 20.7394 5.41496 17.0942C5.41496 15.2718 5.49307 13.6261 5.5715 12.4324C5.61072 11.8355 5.65002 11.3516 5.67969 11.015C5.69452 10.8467 5.70695 10.7152 5.71575 10.6249L5.72608 10.5208L5.72891 10.4929L5.7297 10.4852L5.72992 10.483C5.72998 10.4824 5.73 10.4822 5.73 10.4822L5.73006 10.4815L5.73007 10.4815C5.75244 10.2724 5.92106 10.1087 6.13235 10.087L6.13254 10.0869L6.13254 10.0869C6.13306 10.0869 6.13438 10.0868 6.13648 10.0866C6.26845 10.0733 9.49933 9.74826 12.8708 9.74826C16.2846 9.74826 20.2691 10.081 20.3262 10.0863M5.7315 23.2547C5.7315 23.2547 5.7315 23.2547 5.73151 23.2547L5.77115 23.2494L5.73149 23.2546C5.73149 23.2546 5.73149 23.2546 5.7315 23.2547ZM20.3262 10.0863C20.3263 10.0863 20.3264 10.0863 20.3265 10.0863L20.3226 10.1261L20.326 10.0863C20.326 10.0863 20.3261 10.0863 20.3262 10.0863ZM20.7354 23.2547L20.6958 23.2494L20.7355 23.2544C20.7355 23.2545 20.7354 23.2546 20.7354 23.2547ZM20.7354 23.2547C20.7093 23.4596 20.5429 23.6181 20.3354 23.6405M20.7354 23.2547L20.3354 23.6405M13.2472 23.0914C10.1842 23.0914 7.52873 22.878 6.5898 22.7926C6.50627 21.9941 6.31981 19.8954 6.31981 17.0942C6.31981 14.2353 6.51437 11.8192 6.59547 10.9348C7.53787 10.8494 10.1582 10.636 12.8714 10.636C15.6507 10.636 18.8181 10.8594 19.8806 10.9411C19.9653 11.726 20.1484 13.7828 20.1484 16.7916C20.1484 19.8305 19.9619 21.985 19.8784 22.7927C18.9436 22.8781 16.3068 23.0914 13.2472 23.0914ZM22.3992 22.5765H25.6148C25.8639 22.5765 26.0672 22.3786 26.0672 22.1326C26.0672 21.8866 25.8639 21.6887 25.6148 21.6887H22.3992C22.1501 21.6887 21.9467 21.8866 21.9467 22.1326C21.9467 22.3786 22.1501 22.5765 22.3992 22.5765ZM22.3992 19.882H25.6148C25.8639 19.882 26.0672 19.6841 26.0672 19.4381C26.0672 19.1921 25.8639 18.9942 25.6148 18.9942H22.3992C22.1501 18.9942 21.9467 19.1921 21.9467 19.4381C21.9467 19.6841 22.1501 19.882 22.3992 19.882ZM22.3992 17.1874H25.6148C25.8639 17.1874 26.0672 16.9895 26.0672 16.7435C26.0672 16.4976 25.8639 16.2996 25.6148 16.2996H22.3992C22.1501 16.2996 21.9467 16.4976 21.9467 16.7435C21.9467 16.9895 22.1501 17.1874 22.3992 17.1874ZM22.2924 12.5334C22.2924 13.4603 23.0626 14.2134 24.007 14.2134C24.952 14.2134 25.7216 13.4603 25.7216 12.5334C25.7216 11.6066 24.952 10.8535 24.007 10.8535C23.062 10.8535 22.2924 11.6066 22.2924 12.5334ZM23.1973 12.5334C23.1973 12.0973 23.5596 11.7413 24.007 11.7413C24.4544 11.7413 24.8167 12.0973 24.8167 12.5334C24.8167 12.9696 24.4544 13.3256 24.007 13.3256C23.5596 13.3256 23.1973 12.9696 23.1973 12.5334Z" fill="#3E86F5" stroke="#3E86F5" stroke-width="0.08"/>
</svg>
