<svg width="32" height="32" viewBox="0 0 32 32" fill="none" xmlns="http://www.w3.org/2000/svg">
<path d="M30.0701 15.8693L30.0701 15.8693L30.0703 15.8701C30.2037 16.2969 30.2778 17.164 29.4201 17.9962C28.9294 18.4872 28.697 19.2002 28.589 19.805C28.4868 20.377 28.4983 20.8375 28.4998 20.8943C28.4998 20.8974 28.4999 20.8992 28.4999 20.8999C28.4999 21.1975 28.2875 21.4499 27.9749 21.4499H27.9499C27.6735 21.4499 27.4249 21.234 27.4249 20.9249C27.4249 20.9214 27.4248 20.9148 27.4246 20.9053C27.4221 20.7879 27.4102 20.2305 27.5423 19.5436C27.6847 18.803 27.9966 17.8991 28.6795 17.2289C29.0406 16.8677 29.1631 16.5058 29.055 16.1816C28.9402 15.8371 28.6658 15.5637 28.3018 15.4723C28.0349 15.4122 27.813 15.1424 27.8773 14.8533C27.9367 14.5857 28.207 14.363 28.4966 14.4273L28.4749 14.5249L28.4958 14.4272C29.2317 14.5849 29.8344 15.1362 30.0701 15.8693Z" fill="#272727" stroke="#272727" stroke-width="0.2"/>
<path d="M1.93145 15.5893L1.93149 15.5892L2.48145 14.1643C2.7511 13.4632 3.53355 13.112 4.23536 13.3817C4.23547 13.3817 4.23558 13.3818 4.23569 13.3818L28.1603 22.4567L28.1607 22.4568C28.8619 22.7265 29.2131 23.5092 28.9431 24.2111L28.9431 24.2112L28.3931 25.6361C28.1235 26.3372 27.3409 26.6884 26.6391 26.4186C26.639 26.4185 26.639 26.4185 26.6389 26.4185L2.71432 17.3437L2.71389 17.3435C2.01269 17.0738 1.66149 16.2912 1.93145 15.5893ZM26.8571 23.1049L26.1038 25.0682L27.0349 25.4315C27.0351 25.4316 27.0353 25.4317 27.0355 25.4317C27.1846 25.4873 27.351 25.4122 27.4062 25.265L27.4065 25.2642L27.9562 23.84C27.9562 23.8399 27.9563 23.8398 27.9563 23.8397C28.012 23.6905 27.9369 23.524 27.7897 23.4688L27.7897 23.4688L27.7884 23.4683L26.8571 23.1049ZM3.0849 16.3315L3.08531 16.3317L9.24213 18.6713L9.99548 16.708L3.83968 14.3688C3.8396 14.3688 3.83952 14.3687 3.83944 14.3687C3.69029 14.3129 3.52366 14.388 3.46843 14.5353L3.46808 14.5362L2.91842 15.9603C2.91836 15.9604 2.91829 15.9606 2.91823 15.9608C2.86263 16.1099 2.93769 16.2763 3.0849 16.3315ZM25.0921 24.6963L25.8455 22.7331L11.0075 17.104L10.2541 19.0673L25.0921 24.6963Z" fill="#272727" stroke="#272727" stroke-width="0.2"/>
<path d="M26.3745 14.5638L26.3747 14.5655C26.4466 15.3085 26.8536 15.9563 27.5033 16.3654C27.746 16.5172 27.8416 16.8524 27.6849 17.1031C27.5323 17.3473 27.2241 17.4389 26.9516 17.2875L26.9515 17.2876L26.948 17.2854C26.0225 16.7198 25.4039 15.7676 25.3006 14.6852C25.1467 13.2461 25.7906 11.792 27.1073 10.5766L27.1072 10.5765L27.1114 10.573C27.6654 10.1154 28.001 9.46701 28.0252 8.74749C28.037 8.11185 27.7846 7.52501 27.521 7.09279C27.3896 6.87738 27.2567 6.70253 27.1556 6.58196C27.105 6.52166 27.0626 6.47534 27.0328 6.44464C27.0254 6.43701 27.0189 6.43051 27.0134 6.4251H27.0087L26.9794 6.39581C26.7654 6.18176 26.7654 5.84344 26.9794 5.62939C27.1935 5.41533 27.5318 5.41533 27.7458 5.62939C27.7744 5.65798 28.1179 6.00823 28.4516 6.56761C28.785 7.1264 29.113 7.90119 29.1001 8.77657L29.1001 8.77657L29.1001 8.7778C29.0743 9.73318 28.6601 10.6075 27.8435 11.3731L27.8435 11.3731L27.8424 11.3741C26.7583 12.3597 26.2542 13.5051 26.3745 14.5638Z" fill="#272727" stroke="#272727" stroke-width="0.2"/>
</svg>
