<svg width="32" height="32" viewBox="0 0 32 32" fill="none" xmlns="http://www.w3.org/2000/svg">
<path d="M24.9297 14.8077C24.9297 15.0817 25.1523 15.3042 25.4262 15.3042C25.7002 15.3042 25.9228 15.0817 25.9228 14.8077V11.5713C25.9228 11.2973 25.7002 11.0748 25.4262 11.0748C25.1523 11.0748 24.9297 11.2973 24.9297 11.5713V14.8077Z" fill="#272727" stroke="#272727" stroke-width="0.1"/>
<path d="M25.966 18.7023L25.9661 18.7024C26.3051 18.9088 26.6944 19.0185 27.092 19.0185C27.366 19.0185 27.5885 18.7959 27.5885 18.522V11.345C27.5885 9.68425 26.3538 8.29032 24.7164 8.10356C24.0826 8.03041 23.4325 7.99309 22.7802 7.99309C22.5059 7.99309 22.2859 8.21599 22.2859 8.4896C22.2859 8.76387 22.5111 8.98612 22.7847 8.98612C23.3945 8.98612 24.0058 9.02099 24.6029 9.08997L24.603 9.08998C25.7383 9.21952 26.5955 10.1883 26.5955 11.345V17.9147C26.5576 17.8969 26.5204 17.877 26.4841 17.855C26.2499 17.7118 25.9445 17.7855 25.8014 18.0196C25.6582 18.2538 25.7319 18.5592 25.966 18.7023Z" fill="#272727" stroke="#272727" stroke-width="0.1"/>
<path d="M19.1917 29.8019L19.1918 29.8018C19.7054 29.1785 20.1227 28.6862 20.3363 28.4359L18.9929 21.1812L18.9929 21.1811C18.7827 20.0452 18.7633 18.6156 18.9433 17.2803C19.1231 15.9466 19.5031 14.6987 20.098 13.9317C20.2661 13.7148 20.578 13.6761 20.7947 13.844C21.0116 14.012 21.0504 14.324 20.8825 14.5407L20.8825 14.5408C20.4333 15.1197 20.0983 16.1632 19.9292 17.3529C19.7605 18.5406 19.7584 19.8653 19.9686 21.0007L21.355 28.4887L21.355 28.4887C21.3824 28.6369 21.341 28.7892 21.2425 28.9033M19.1917 29.8019L21.2047 28.8706M19.1917 29.8019C19.0693 29.9507 19.0436 30.1559 19.1256 30.3297C19.2075 30.5036 19.3829 30.6144 19.5749 30.6144H22.7801C23.0539 30.6144 23.2767 30.3919 23.2751 30.1178M19.1917 29.8019L23.2751 30.1178M21.2425 28.9033L21.2047 28.8706M21.2425 28.9033C21.2428 28.9029 21.243 28.9027 21.2431 28.9027L21.2047 28.8706M21.2425 28.9033C21.2417 28.9043 21.2399 28.9064 21.2372 28.9095C21.1984 28.9547 20.9714 29.2185 20.6332 29.6214M21.2047 28.8706C21.2043 28.8711 21.2016 28.8742 21.1967 28.8799C21.1514 28.9326 20.9173 29.205 20.5679 29.6214H20.6332M20.6332 29.6214C20.6194 29.6378 20.6054 29.6545 20.5912 29.6714H20.526H22.2821V29.6214M20.6332 29.6214H22.2821M22.2821 29.6214V18.2266C22.2821 17.9526 22.5047 17.7301 22.7786 17.7301C23.0526 17.7301 23.2751 17.9526 23.2751 18.2266V30.1178M22.2821 29.6214H22.3321M22.3321 29.6214V18.2266C22.3321 17.9802 22.5323 17.7801 22.7786 17.7801C23.0249 17.7801 23.2251 17.9802 23.2251 18.2266V30.1179M22.3321 29.6214L21.3059 28.4978L19.9195 21.0098C19.4968 18.7267 19.9284 15.6889 20.843 14.5101C20.9941 14.3151 20.9591 14.0346 20.7641 13.8835C20.5691 13.7324 20.2886 13.7674 20.1375 13.9624C18.9639 15.4753 18.6238 18.912 19.0421 21.172L20.3898 28.4502C20.1814 28.6943 19.7565 29.1951 19.2303 29.8336C19.1202 29.9676 19.0971 30.1521 19.1708 30.3084C19.2445 30.4647 19.4022 30.5644 19.5749 30.5644H22.7801C23.0264 30.5644 23.2266 30.3642 23.2251 30.1179M22.3321 29.6214L23.2751 30.1178M23.2251 30.1179H23.2751V30.1178M23.2251 30.1179L23.2751 30.1176C23.2751 30.1177 23.2751 30.1177 23.2751 30.1178" fill="#272727" stroke="#272727" stroke-width="0.1"/>
<path d="M25.9896 30.6144H22.7844C22.5105 30.6144 22.2879 30.3918 22.2879 30.1179V18.2266C22.2879 17.9526 22.5105 17.7301 22.7844 17.7301C23.0583 17.7301 23.2809 17.9526 23.2809 18.2266V29.6214H24.9299C24.5915 29.2185 24.3646 28.9546 24.3258 28.9095C24.3231 28.9064 24.3213 28.9043 24.3205 28.9033C24.3202 28.9029 24.32 28.9027 24.3199 28.9027L24.3584 28.8706L25.9896 30.6144ZM25.9896 30.6144C26.1814 30.6144 26.3569 30.5038 26.4374 30.3297M25.9896 30.6144L26.4374 30.3297M26.4374 30.3297C26.5193 30.156 26.4937 29.95 26.3713 29.8018L26.4374 30.3297ZM24.208 28.4887L24.208 28.4887L26.3712 29.8018C25.8576 29.1784 25.4403 28.6862 25.2267 28.4359L26.5701 21.1812C26.5701 21.1812 26.5701 21.1812 26.5701 21.1812C26.7807 20.0452 26.8001 18.6156 26.62 17.2803C26.4401 15.9466 26.0599 14.6987 25.465 13.9317C25.297 13.7148 24.985 13.6761 24.7683 13.844C24.5514 14.012 24.5126 14.324 24.6805 14.5407L24.6805 14.5408C25.1297 15.1197 25.4647 16.163 25.6338 17.3526C25.8026 18.5402 25.8046 19.8649 25.5944 21.0007L24.208 28.4887Z" fill="#272727" stroke="#272727" stroke-width="0.1"/>
<path d="M24.9331 11.5067L24.9827 11.5132L24.9331 11.5067L24.9331 11.5067ZM24.9331 11.5067C24.9687 11.2343 25.218 11.0441 25.49 11.0796C25.7623 11.1152 25.9535 11.3651 25.9171 11.6366C25.9171 11.6367 25.9171 11.6367 25.9171 11.6367L24.9331 11.5067ZM25.009 14.7278L25.009 14.7278L24.5819 14.1707L24.6314 14.1774L24.5819 14.1709L24.5819 14.1708C24.5455 14.4423 24.7367 14.6922 25.009 14.7278Z" fill="#272727" stroke="#272727" stroke-width="0.1"/>
<path d="M7.63168 28.1797L7.39131 16.5236L7.39131 16.5235C7.38552 16.2493 7.15914 16.0297 6.88467 16.037M7.63168 28.1797L6.88482 16.037C6.88477 16.037 6.88472 16.037 6.88467 16.037M7.63168 28.1797L7.63168 28.1798L7.63168 28.1797ZM6.88467 16.037C6.61016 16.0429 6.39253 16.2695 6.39831 16.5435C6.39831 16.5435 6.39831 16.5435 6.39831 16.5435M6.88467 16.037L6.39831 16.5435M6.39831 16.5435L6.63212 27.8988C6.42435 28.0217 6.13705 28.2113 5.87504 28.4531C5.60281 28.7042 5.35376 29.0154 5.2534 29.3705H5.2534C5.15417 29.7201 5.20719 30.0712 5.40513 30.3835L6.39831 16.5435ZM6.15136 29.6729H6.20201C6.20377 29.6627 6.20602 29.6528 6.20912 29.642L6.20918 29.6417C6.21093 29.6355 6.21286 29.6292 6.21494 29.6229H6.16257C6.16205 29.6247 6.16154 29.6264 6.16104 29.6282C6.15657 29.6439 6.1536 29.658 6.15136 29.6729ZM9.42504 29.6729V29.6229H9.37505L9.37504 29.6729L9.42504 29.6729ZM7.33164 28.5908L7.35366 28.6357C7.35371 28.6357 7.35376 28.6357 7.3538 28.6357L7.33164 28.5908Z" fill="#272727" stroke="#272727" stroke-width="0.1"/>
<path d="M13.5858 29.6268C13.5902 29.6424 13.5932 29.6573 13.5954 29.6714L13.5858 29.6268ZM13.5858 29.6268C13.5853 29.625 13.5847 29.6232 13.5842 29.6214L13.5858 29.6268ZM12.3555 16.5221L12.3555 16.5221C12.3613 16.2481 12.5903 16.0298 12.862 16.0356L12.3555 16.5221ZM12.3555 16.5221L12.1151 28.1782M12.3555 16.5221L12.1151 28.1782M13.3485 16.5419L13.3485 16.542L13.1147 27.8973C13.3228 28.0203 13.6103 28.21 13.8723 28.4519C14.1446 28.7031 14.3934 29.0144 14.4934 29.3691C14.5926 29.7194 14.5396 30.0704 14.3416 30.3821C14.3416 30.3821 14.3416 30.3821 14.3416 30.3821L14.2994 30.3553L13.3485 16.5419ZM13.3485 16.5419C13.3535 16.2681 13.1359 16.0414 12.862 16.0356L13.3485 16.5419ZM12.1151 28.1782C12.1151 28.1783 12.1151 28.1783 12.1151 28.1783M12.1151 28.1782L12.1151 28.1783M12.1151 28.1783C12.111 28.3711 12.2194 28.549 12.3923 28.6342L12.1151 28.1783ZM9.37725 19.3726V19.3726L12.3923 28.6342C12.556 28.715 12.8175 28.8716 13.0516 29.0576C13.1686 29.1506 13.2776 29.2501 13.364 29.3503C13.4449 29.4441 13.5036 29.5359 13.5318 29.6214H10.3717L10.3703 19.3726C10.3703 19.3726 10.3703 19.3726 10.3703 19.3726C10.3703 19.0987 10.1477 18.8761 9.87376 18.8761C9.59982 18.8761 9.37725 19.0987 9.37725 19.3726Z" fill="#272727" stroke="#272727" stroke-width="0.1"/>
<path d="M12.1324 6.1887V6.18863V3.94416C12.1324 2.74446 11.156 1.76802 9.95626 1.76802H9.79923C8.59953 1.76802 7.6231 2.74446 7.6231 3.94416V5.01133C7.6231 6.21103 8.59953 7.18747 9.79923 7.18747H11.1328C11.6836 7.18747 12.1316 6.73941 12.1324 6.1887ZM8.61612 3.94416C8.61612 3.29159 9.14666 2.76105 9.79923 2.76105H9.95551C10.6081 2.76105 11.1386 3.29159 11.1386 3.94416V6.18863C11.1386 6.1888 11.1385 6.19041 11.1365 6.19234C11.1346 6.19428 11.133 6.19444 11.1328 6.19444H9.79923C9.14666 6.19444 8.61612 5.6639 8.61612 5.01133V3.94416Z" fill="#272727" stroke="#272727" stroke-width="0.1"/>
<path d="M12.3547 16.0355V11.325C12.3547 11.0511 12.5773 10.8285 12.8512 10.8285C13.1252 10.8285 13.3477 11.0511 13.3477 11.325L13.3477 16.5319L13.3477 16.5321M12.3547 16.0355L13.3477 16.5321M12.3547 16.0355H7.39274L7.39053 11.325C7.39053 11.325 7.39053 11.325 7.39053 11.325C7.39052 11.0502 7.1679 10.8285 6.89402 10.8285C6.61928 10.8285 6.39751 11.0511 6.39751 11.325L6.39751 11.325L6.40049 16.5321C6.40049 16.5321 6.40049 16.5321 6.40049 16.5321M12.3547 16.0355L6.40049 16.5321M13.3477 16.5321C13.3485 16.8061 13.1258 17.0286 12.852 17.0286H6.897C6.62312 17.0286 6.4005 16.8068 6.40049 16.5321M13.3477 16.5321L6.40049 16.5321" fill="#272727" stroke="#272727" stroke-width="0.1"/>
<path d="M4.84894 18.7696L4.84893 18.7697L4.85153 18.7699C4.8527 18.77 4.85501 18.7702 4.8584 18.7705C4.88194 18.7727 4.95769 18.7797 5.06695 18.7797C5.41082 18.7797 6.10455 18.7122 6.65546 18.2238L6.65549 18.2238C7.14673 17.7877 7.39193 17.145 7.39193 16.3215V11.3243C7.39193 11.0503 7.16936 10.8277 6.89542 10.8277C6.62148 10.8277 6.3989 11.0503 6.3989 11.3243V16.3215C6.3989 16.8587 6.2609 17.2433 6.00021 17.478C5.8214 17.6388 5.59955 17.7172 5.40569 17.7548V11.1382C5.40569 9.98446 6.26218 9.01559 7.39758 8.88313C8.21502 8.7881 9.04508 8.73984 9.86546 8.73984H9.86548H9.8655H9.86552H9.86553H9.86555H9.86557H9.86559H9.8656H9.86562H9.86564H9.86565H9.86567H9.86569H9.86571H9.86573H9.86574H9.86576H9.86578H9.86579H9.86581H9.86583H9.86585H9.86586H9.86588H9.8659H9.86592H9.86593H9.86595H9.86597H9.86599H9.866H9.86602H9.86604H9.86606H9.86607H9.86609H9.86611H9.86613H9.86614H9.86616H9.86618H9.8662H9.86621H9.86623H9.86625H9.86627H9.86628H9.8663H9.86632H9.86634H9.86635H9.86637H9.86639H9.86641H9.86642H9.86644H9.86646H9.86647H9.86649H9.86651H9.86653H9.86654H9.86656H9.86658H9.8666H9.86661H9.86663H9.86665H9.86667H9.86668H9.8667H9.86672H9.86674H9.86675H9.86677H9.86679H9.86681H9.86682H9.86684H9.86686H9.86688H9.86689H9.86691H9.86693H9.86695H9.86696H9.86698H9.867H9.86702H9.86703H9.86705H9.86707H9.86708H9.8671H9.86712H9.86714H9.86716H9.86717H9.86719H9.86721H9.86722H9.86724H9.86726H9.86728H9.86729H9.86731H9.86733H9.86735H9.86736H9.86738H9.8674H9.86742H9.86743H9.86745H9.86747H9.86749H9.8675H9.86752H9.86754H9.86756H9.86757H9.86759H9.86761H9.86763H9.86764H9.86766H9.86768H9.8677H9.86771H9.86773H9.86775H9.86777H9.86778H9.8678H9.86782H9.86784H9.86785H9.86787H9.86789H9.8679H9.86792H9.86794H9.86796H9.86797H9.86799H9.86801H9.86803H9.86804H9.86806H9.86808H9.8681H9.86811H9.86813H9.86815H9.86817H9.86818H9.8682H9.86822H9.86824H9.86825H9.86827H9.86829H9.86831H9.86832H9.86834H9.86836H9.86838H9.86839H9.86841H9.86843H9.86845H9.86846H9.86848H9.8685H9.86852H9.86853H9.86855H9.86857H9.86859H9.8686H9.86862H9.86864H9.86865H9.86867H9.86869H9.86871H9.86872H9.86874H9.86876H9.86878H9.86879H9.86881H9.86883H9.86885H9.86886H9.86888H9.8689H9.86892H9.86893H9.86895H9.86897H9.86899H9.869H9.86902H9.86904H9.86906H9.86907H9.86909H9.86911H9.86913H9.86914H9.86916H9.86918H9.8692H9.86921H9.86923H9.86925H9.86927H9.86928H9.8693H9.86932H9.86934H9.86935H9.86937H9.86939H9.8694H9.86942H9.86944H9.86946H9.86947H9.86949H9.86951H9.86953H9.86954H9.86956H9.86958H9.8696H9.86961H9.86963H9.86965H9.86967H9.86968H9.8697H9.86972H9.86974H9.86975H9.86977H9.86979H9.86981H9.86982H9.86984H9.86986H9.86988H9.86989H9.86991H9.86993H9.86995H9.86996H9.86998H9.87H9.87002H9.87003H9.87005H9.87007H9.87008H9.8701H9.87012H9.87014H9.87015H9.87017H9.87019H9.87021H9.87022H9.87024H9.87026H9.87028H9.87029H9.87031H9.87033H9.87035H9.87036H9.87038H9.8704H9.87042H9.87043H9.87045H9.87047H9.87049H9.8705H9.87052H9.87054H9.87056H9.87057H9.87059H9.87061H9.87063H9.87064H9.87066H9.87068H9.8707H9.87071H9.87073H9.87075H9.87077H9.87078H9.8708H9.87082H9.87083H9.87085H9.87087H9.87089H9.8709H9.87092H9.87094H9.87096H9.87097H9.87099H9.87101H9.87103H9.87104H9.87106H9.87108H9.8711H9.87111H9.87113H9.87115H9.87117H9.87118H9.8712H9.87122H9.87124H9.87125H9.87127H9.87129H9.87131H9.87132H9.87134H9.87136H9.87138H9.87139H9.87141H9.87143H9.87145H9.87146H9.87148H9.8715H9.87152H9.87153H9.87155H9.87157H9.87158H9.8716H9.87162H9.87164H9.87165H9.87167H9.87169H9.87171H9.87172H9.87174H9.87176H9.87178H9.87179H9.87181H9.87183H9.87185H9.87186H9.87188H9.8719H9.87192H9.87193H9.87195H9.87197H9.87199H9.872H9.87202H9.87204H9.87206H9.87207H9.87209H9.87211H9.87213H9.87214H9.87216H9.87218H9.8722H9.87221H9.87223H9.87225H9.87226H9.87228H9.8723H9.87232H9.87233H9.87235H9.87237H9.87239H9.8724H9.87242H9.87244H9.87246H9.87247H9.87249H9.87251H9.87253H9.87254H9.87256H9.87258H9.8726H9.87261H9.87263H9.87265H9.87267H9.87268H9.8727H9.87272H9.87274H9.87275H9.87277H9.87279H9.87281H9.87282H9.87284H9.87286H9.87288H9.87289H9.87291H9.87293H9.87295H9.87296H9.87298H9.873H9.87301H9.87303H9.87305H9.87307H9.87309H9.8731H9.87312H9.87314H9.87315H9.87317H9.87319H9.87321H9.87322H9.87324H9.87326H9.87328H9.87329H9.87331H9.87333H9.87335H9.87336H9.87338H9.8734H9.87342H9.87343H9.87345H9.87347H9.87349H9.8735H9.87352H9.87354H9.87356H9.87357H9.87359H9.87361H9.87363H9.87364H9.87366H9.87368H9.8737H9.87371H9.87373H9.87375H9.87376H9.87378H9.8738H9.87382H9.87383H9.87385H9.87387H9.87389H9.8739H9.87392H9.87394H9.87396H9.87397H9.87399H9.87401H9.87403H9.87404H9.87406H9.87408H9.8741H9.87411H9.87413H9.87415H9.87417H9.87418H9.8742H9.87422H9.87424H9.87425H9.87427H9.87429H9.87431H9.87432H9.87434H9.87436H9.87438H9.87439C10.1483 8.73984 10.3709 8.51727 10.3709 8.24333C10.3709 7.96939 10.1483 7.74681 9.87439 7.74681H9.87437H9.87435H9.87433H9.87431H9.87428H9.87426H9.87424H9.87422H9.8742H9.87418H9.87415H9.87413H9.87411H9.87409H9.87407H9.87405H9.87402H9.874H9.87398H9.87396H9.87394H9.87392H9.8739H9.87387H9.87385H9.87383H9.87381H9.87379H9.87377H9.87375H9.87372H9.8737H9.87368H9.87366H9.87364H9.87362H9.8736H9.87358H9.87356H9.87353H9.87351H9.87349H9.87347H9.87345H9.87343H9.87341H9.87339H9.87337H9.87334H9.87332H9.8733H9.87328H9.87326H9.87324H9.87322H9.8732H9.87318H9.87316H9.87314H9.87311H9.87309H9.87307H9.87305H9.87303H9.87301H9.87299H9.87297H9.87295H9.87293H9.87291H9.87289H9.87287H9.87284H9.87282H9.8728H9.87278H9.87276H9.87274H9.87272H9.8727H9.87268H9.87266H9.87264H9.87262H9.8726H9.87258H9.87256H9.87254H9.87252H9.8725H9.87248H9.87246H9.87243H9.87241H9.87239H9.87237H9.87235H9.87233H9.87231H9.87229H9.87227H9.87225H9.87223H9.87221H9.87219H9.87217H9.87215H9.87213H9.87211H9.87209H9.87207H9.87205H9.87203H9.87201H9.87199H9.87197H9.87195H9.87193H9.87191H9.87189H9.87187H9.87185H9.87183H9.87181H9.87179H9.87177H9.87175H9.87173H9.87171H9.87169H9.87167H9.87165H9.87163H9.87161H9.87159H9.87157H9.87155H9.87153H9.87151H9.87149H9.87147H9.87145H9.87143H9.87141H9.87139H9.87137H9.87135H9.87134H9.87132H9.8713H9.87128H9.87126H9.87124H9.87122H9.8712H9.87118H9.87116H9.87114H9.87112H9.8711H9.87108H9.87106H9.87104H9.87102H9.871H9.87098H9.87096H9.87094H9.87092H9.87091H9.87089H9.87087H9.87085H9.87083H9.87081H9.87079H9.87077H9.87075H9.87073H9.87071H9.87069H9.87067H9.87065H9.87064H9.87062H9.8706H9.87058H9.87056H9.87054H9.87052H9.8705H9.87048H9.87046H9.87044H9.87042H9.87041H9.87039H9.87037H9.87035H9.87033H9.87031H9.87029H9.87027H9.87025H9.87023H9.87021H9.8702H9.87018H9.87016H9.87014H9.87012H9.8701H9.87008H9.87006H9.87004H9.87003H9.87001H9.86999H9.86997H9.86995H9.86993H9.86991H9.86989H9.86987H9.86986H9.86984H9.86982H9.8698H9.86978H9.86976H9.86974H9.86972H9.86971H9.86969H9.86967H9.86965H9.86963H9.86961H9.86959H9.86957H9.86956H9.86954H9.86952H9.8695H9.86948H9.86946H9.86944H9.86943H9.86941H9.86939H9.86937H9.86935H9.86933H9.86931H9.8693H9.86928H9.86926H9.86924H9.86922H9.8692H9.86918H9.86917H9.86915H9.86913H9.86911H9.86909H9.86907H9.86905H9.86904H9.86902H9.869H9.86898H9.86896H9.86894H9.86893H9.86891H9.86889H9.86887H9.86885H9.86883H9.86882H9.8688H9.86878H9.86876H9.86874H9.86872H9.86871H9.86869H9.86867H9.86865H9.86863H9.86861H9.8686H9.86858H9.86856H9.86854H9.86852H9.86851H9.86849H9.86847H9.86845H9.86843H9.86841H9.8684H9.86838H9.86836H9.86834H9.86832H9.86831H9.86829H9.86827H9.86825H9.86823H9.86821H9.8682H9.86818H9.86816H9.86814H9.86812H9.86811H9.86809H9.86807H9.86805H9.86803H9.86802H9.868H9.86798H9.86796H9.86794H9.86793H9.86791H9.86789H9.86787H9.86785H9.86784H9.86782H9.8678H9.86778H9.86776H9.86775H9.86773H9.86771H9.86769H9.86767H9.86766H9.86764H9.86762H9.8676H9.86759H9.86757H9.86755H9.86753H9.86751H9.8675H9.86748H9.86746H9.86744H9.86742H9.86741H9.86739H9.86737H9.86735H9.86734H9.86732H9.8673H9.86728H9.86726H9.86725H9.86723H9.86721H9.86719H9.86718H9.86716H9.86714H9.86712H9.8671H9.86709H9.86707H9.86705H9.86703H9.86702H9.867H9.86698H9.86696H9.86694H9.86693H9.86691H9.86689H9.86687H9.86686H9.86684H9.86682H9.8668H9.86679H9.86677H9.86675H9.86673H9.86671H9.8667H9.86668H9.86666H9.86664H9.86663H9.86661H9.86659H9.86657H9.86656H9.86654H9.86652H9.8665H9.86649H9.86647H9.86645H9.86643H9.86642H9.8664H9.86638H9.86636H9.86634H9.86633H9.86631H9.86629H9.86627H9.86626H9.86624H9.86622H9.8662H9.86619H9.86617H9.86615H9.86613H9.86612H9.8661H9.86608H9.86606H9.86605H9.86603H9.86601H9.86599H9.86598H9.86596H9.86594H9.86592H9.86591H9.86589H9.86587H9.86585H9.86584H9.86582H9.8658H9.86578H9.86577H9.86575H9.86573H9.86571H9.8657H9.86568H9.86566H9.86564H9.86563H9.86561H9.86559H9.86557H9.86556H9.86554H9.86552H9.8655H9.86549H9.86547H9.86545H9.86543H9.86542H9.8654H9.86538H9.86536H9.86535H9.86533H9.86531H9.86529H9.86528H9.86526H9.86524H9.86522H9.86521H9.86519H9.86517H9.86515H9.86514H9.86512H9.8651H9.86508H9.86507H9.86505H9.86503H9.86501H9.865H9.86498H9.86496H9.86494H9.86493H9.86491H9.86489H9.86487H9.86486H9.86484H9.86482H9.86481H9.86479H9.86477H9.86475H9.86474H9.86472C9.00621 7.74681 8.1373 7.79753 7.2818 7.89748C5.64523 8.08873 4.41118 9.4818 4.41118 11.139V18.2765C4.41118 18.528 4.59902 18.7398 4.84894 18.7696Z" fill="#272727" stroke="#272727" stroke-width="0.1"/>
<path d="M14.8916 15.9077C15.0933 16.4964 15.4073 16.8491 15.8256 16.9548C15.9037 16.9749 15.9759 17.0151 16.0332 17.0724C16.2073 17.2465 16.2073 17.5293 16.0332 17.7042M14.8916 15.9077L14.9389 15.8915C15.1378 16.4719 15.4426 16.8064 15.8378 16.9063L15.838 16.9064C15.9245 16.9286 16.0047 16.9731 16.0686 17.037C16.2622 17.2307 16.2622 17.545 16.0687 17.7393M14.8916 15.9077L13.2738 11.1799L14.8916 15.9077ZM16.0687 17.7393C16.0688 17.7393 16.0688 17.7393 16.0689 17.7392L16.0332 17.7042M16.0687 17.7393C16.0687 17.7394 16.0687 17.7394 16.0686 17.7395L16.0332 17.7042M16.0687 17.7393C15.9724 17.8372 15.8448 17.8852 15.7184 17.8852C15.6697 17.8852 15.6213 17.8778 15.5747 17.864M16.0332 17.7042C15.9469 17.792 15.8323 17.8352 15.7184 17.8352C15.6745 17.8352 15.6306 17.8285 15.5882 17.8158M15.5882 17.8158L15.5754 17.8642C15.5752 17.8641 15.5749 17.864 15.5747 17.864M15.5882 17.8158L15.5739 17.8637C15.5741 17.8638 15.5744 17.8639 15.5747 17.864M15.5882 17.8158L13.3211 11.1637C13.2325 10.9046 12.9495 10.7665 12.6905 10.855C12.4314 10.9436 12.2933 11.2266 12.3818 11.4856L12.3818 11.4856L13.9997 16.2134C14.381 17.3279 15.0593 17.728 15.5747 17.864M14.9389 15.8915L13.3211 11.1637L14.9389 15.8915Z" fill="#272727" stroke="#272727" stroke-width="0.1"/>
<path d="M15.9011 15.6368L15.901 15.6366L14.3695 11.1612C14.3695 11.1612 14.3695 11.1612 14.3695 11.1611C14.1169 10.4306 13.8836 9.89302 13.5775 9.52183C13.2741 9.15376 12.8974 8.94725 12.3504 8.88388L12.3503 8.88387C11.5299 8.7881 10.6969 8.73984 9.87278 8.73984C9.59884 8.73984 9.37627 8.51727 9.37627 8.24333C9.37627 7.96939 9.59884 7.74681 9.87278 7.74681C10.735 7.74681 11.6069 7.79753 12.4646 7.89747L15.9011 15.6368ZM15.9011 15.6368C15.9722 15.8427 16.1641 15.9726 16.371 15.9726C16.4238 15.9726 16.4784 15.9643 16.5316 15.9461L16.5154 15.8988L16.5316 15.9461C16.7907 15.8575 16.9288 15.5745 16.8403 15.3155L16.8403 15.3155L15.308 10.8385L15.3079 10.8383M15.9011 15.6368L15.3079 10.8383M15.3079 10.8383C15.0627 10.1294 14.7919 9.44523 14.3628 8.91324M15.3079 10.8383L14.3628 8.91324M14.3628 8.91324C13.9317 8.37889 13.3421 7.99952 12.4646 7.89748L14.3628 8.91324Z" fill="#272727" stroke="#272727" stroke-width="0.1"/>
<path d="M19.9984 14.3L19.9984 14.3001L20.5488 14.6775L20.5553 14.7271C20.5555 14.727 20.5557 14.727 20.5559 14.727C20.8271 14.6911 21.0179 14.4421 20.9824 14.1702L20.9824 14.1701L20.6311 11.506C20.6311 11.506 20.6311 11.5059 20.6311 11.5059C20.5955 11.2344 20.3463 11.0433 20.0742 11.0789L20.0742 11.0789C19.8026 11.1145 19.6116 11.3637 19.6471 11.6358L19.6471 11.6358L19.9984 14.3Z" fill="#272727" stroke="#272727" stroke-width="0.1"/>
<path d="M20.489 14.723H25.0754C25.3493 14.723 25.5719 14.5004 25.5719 14.2265C25.5719 13.9525 25.3493 13.73 25.0754 13.73H20.489C20.2151 13.73 19.9925 13.9525 19.9925 14.2265C19.9925 14.5004 20.2151 14.723 20.489 14.723Z" fill="#272727" stroke="#272727" stroke-width="0.1"/>
<path d="M15.4905 17.8292L15.49 17.829C15.2705 17.7163 15.1681 17.4597 15.2474 17.2266L15.2475 17.2265L17.3491 11.0855L17.3491 11.0853C17.6544 10.2036 18.0088 9.54716 18.4597 9.07229C18.9116 8.5965 19.4577 8.3058 20.141 8.15135C20.9004 7.97946 21.6678 7.98487 22.4036 7.99005L22.4132 7.99012C22.5375 7.99086 22.6617 7.99161 22.7858 7.99161C23.0597 7.99161 23.2823 8.21418 23.2823 8.48812C23.2823 8.76206 23.0597 8.98463 22.7858 8.98463C22.6598 8.98463 22.5332 8.98388 22.4065 8.98239C22.4065 8.98239 22.4064 8.98239 22.4064 8.98239L22.4057 8.98239C21.6838 8.97717 21.0098 8.97231 20.3603 9.11884L15.4905 17.8292ZM15.4905 17.8292L15.4913 17.8296M15.4905 17.8292L15.4913 17.8296M17.732 16.0304L17.732 16.0305L19.6825 11.3771L17.732 16.0304ZM17.732 16.0304L17.7315 16.0318L17.732 16.0304ZM15.4913 17.8296C15.5274 17.8477 15.9944 18.0815 16.5882 18.0815M15.4913 17.8296L16.5882 18.0815M16.5882 18.0815C16.8256 18.0815 17.0844 18.0443 17.3445 17.938M16.5882 18.0815L17.3445 17.938M18.289 11.4074C18.5404 10.6805 18.8067 10.1658 19.135 9.80434C19.462 9.44427 19.8531 9.23339 20.3603 9.11884L18.289 11.4074ZM18.289 11.4074C18.289 11.4075 18.289 11.4075 18.289 11.4075L16.3521 17.068C16.5401 17.0996 16.7665 17.102 16.98 17.0149C17.2943 16.8858 17.5461 16.5712 17.7202 16.0626C17.7202 16.0623 17.7203 16.0621 17.7204 16.0619L17.7677 16.0781L18.289 11.4074ZM18.6531 16.3996L20.5978 11.7612L18.6537 16.398C18.6535 16.3986 18.6533 16.3991 18.6531 16.3996ZM18.6531 16.3996C18.3842 17.1754 17.9453 17.6961 17.3445 17.938M18.6531 16.3996L17.3445 17.938M20.5978 11.7611C20.7046 11.5086 20.5853 11.2173 20.3322 11.1114L20.5978 11.761L20.5978 11.7611Z" fill="#272727" stroke="#272727" stroke-width="0.1"/>
<path d="M21.0562 6.80568L21.0562 6.80567C20.9407 6.43891 20.8436 5.85581 20.7877 5.20777C20.6687 3.92982 20.9173 2.97835 21.5432 2.39754L21.5432 2.39754C22.2281 1.76202 23.107 1.82845 23.3057 1.85371C23.6576 1.86783 24.156 1.98807 24.5737 2.29862C24.9944 2.61134 25.3309 3.11555 25.3541 3.88982C25.3983 5.37503 24.9573 6.21938 24.4879 6.69427C24.0231 7.1646 23.5364 7.26647 23.4854 7.27579C23.4851 7.27585 23.4848 7.27591 23.4844 7.27596L23.4756 7.22675C23.4689 7.22823 23.463 7.22898 23.4563 7.22972L21.0562 6.80568ZM21.0562 6.80568C21.1827 7.20707 21.5587 7.47693 21.9739 7.47693C22.006 7.47693 22.0378 7.47537 22.069 7.47308L22.0691 7.4732L22.0725 7.47271L22.0802 7.47166L22.0887 7.4705L22.0888 7.47048L23.4625 7.27934L21.0562 6.80568ZM22.2128 3.13142L22.2128 3.1314C22.4878 2.87204 22.8471 2.83098 23.0447 2.83098C23.0879 2.83098 23.1228 2.83296 23.1469 2.83483C23.1589 2.83576 23.1683 2.83668 23.1748 2.83732L23.1828 2.83811L23.1852 2.83828C23.2057 2.84132 23.2294 2.84356 23.2497 2.84434L23.2498 2.84434C23.3408 2.84758 23.6136 2.87029 23.866 3.01539C24.1149 3.15854 24.3471 3.42226 24.3618 3.91809L24.3618 3.9181C24.3925 4.94616 24.1488 5.53409 23.89 5.86753C23.6353 6.19558 23.3616 6.28284 23.305 6.29801L21.995 6.48027C21.9063 6.1835 21.8248 5.67985 21.7766 5.11939L21.7766 5.11902C21.6868 4.15867 21.845 3.47787 22.2128 3.13142Z" fill="#272727" stroke="#272727" stroke-width="0.1"/>
<path d="M23.7124 2.43481C23.6056 2.68725 23.724 2.97852 23.9764 3.08526C24.2288 3.19204 24.5201 3.07367 24.6268 2.8213L24.6269 2.82122C24.7416 2.54864 25.0006 2.37926 25.3049 2.37926C25.7134 2.37926 26.046 2.71185 26.046 3.12033C26.046 3.52881 25.7134 3.8614 25.3049 3.8614C25.2048 3.8614 25.1242 3.8467 25.0432 3.81374L25.0431 3.81369C24.7888 3.71101 24.5 3.83447 24.3975 4.08919L24.4439 4.10787L24.3975 4.08914C24.2948 4.34345 24.4191 4.63217 24.673 4.73469L24.6731 4.73475C24.8728 4.81462 25.08 4.85368 25.3056 4.85368C26.262 4.85368 27.039 4.07746 27.039 3.12107C27.039 2.16472 26.2613 1.38698 25.3049 1.38698C24.6072 1.38698 23.9816 1.7976 23.7124 2.43481ZM23.7124 2.43481L23.7585 2.45428M23.7124 2.43481C23.7124 2.43481 23.7124 2.43482 23.7124 2.43483L23.7585 2.45428M23.7585 2.45428C23.6625 2.68126 23.7689 2.94321 23.9959 3.03921C24.2228 3.13521 24.4848 3.0288 24.5808 2.80182L24.6917 4.68833C24.8852 4.76573 25.0861 4.80368 25.3056 4.80368C26.2344 4.80368 26.989 4.04982 26.989 3.12107C26.989 2.19233 26.2336 1.43698 25.3049 1.43698C24.6269 1.43698 24.0197 1.83586 23.7585 2.45428Z" fill="#272727" stroke="#272727" stroke-width="0.1"/>
</svg>
