<svg width="33" height="32" viewBox="0 0 33 32" fill="none" xmlns="http://www.w3.org/2000/svg">
<rect x="0.79541" width="32.0056" height="32" rx="16" fill="#F0F0F0"/>
<path d="M11.7983 15.8594C11.7983 16.0547 11.8687 16.2266 12.0171 16.375L18.2124 22.4297C18.3452 22.5703 18.5171 22.6406 18.7202 22.6406C19.1265 22.6406 19.439 22.3359 19.439 21.9297C19.439 21.7266 19.353 21.5547 19.228 21.4219L13.5405 15.8594L19.228 10.2969C19.353 10.1641 19.439 9.98438 19.439 9.78906C19.439 9.38281 19.1265 9.07812 18.7202 9.07812C18.5171 9.07812 18.3452 9.14844 18.2124 9.28125L12.0171 15.3438C11.8687 15.4844 11.7983 15.6641 11.7983 15.8594Z" fill="#1D1D1D"/>
</svg>
