<svg width="26" height="25" viewBox="0 0 26 25" fill="none" xmlns="http://www.w3.org/2000/svg">
<path d="M12.9999 4.46558L11.8348 3.26795C9.09994 0.456704 4.08519 1.42683 2.27494 4.9612C1.42506 6.62358 1.23331 9.0237 2.78519 12.0868C4.28019 15.0362 7.39044 18.569 12.9999 22.417C18.6094 18.569 21.7181 15.0362 23.2147 12.0868C24.7666 9.02208 24.5764 6.62358 23.7249 4.9612C21.9147 1.42683 16.8999 0.455079 14.1651 3.26633L12.9999 4.46558ZM12.9999 24.3751C-11.9162 7.91058 5.32831 -4.93992 12.7139 1.85745C12.8114 1.94683 12.9073 2.03945 12.9999 2.13533C13.0916 2.03954 13.187 1.94739 13.2859 1.85908C20.6699 -4.94317 37.9161 7.90895 12.9999 24.3751Z" fill="#272727"/>
</svg>
